<svg xmlns="http://www.w3.org/2000/svg" fill="currentColor" viewBox="0 0 72 72" class="icon--decorative" role="presentation">
  <title>Arrow cycle</title>
  <g class="symbols_arrow--cycle">
    <path fill-rule="evenodd" d="M37.607 2.293a1.9 1.9 0 0 1 2.604.566l4.47 6.9a1.845 1.845 0 0 1-.427 2.467l-6.533 5.048c-.82.633-2.005.49-2.647-.319a1.845 1.845 0 0 1 .323-2.612l3.67-2.836a1.93 1.93 0 0 1-.174.008H36c-4.736 0-9.39 1.22-13.504 3.539a27.066 27.066 0 0 0-9.948 9.684 26.622 26.622 0 0 0-3.775 13.28 26.608 26.608 0 0 0 3.395 13.38 27.038 27.038 0 0 0 9.668 9.956 27.491 27.491 0 0 0 13.398 3.913 27.522 27.522 0 0 0 13.6-3.16 27.097 27.097 0 0 0 10.223-9.403 1.9 1.9 0 0 1 2.6-.585 1.847 1.847 0 0 1 .592 2.566A30.847 30.847 0 0 1 50.611 65.39a31.332 31.332 0 0 1-15.483 3.599 31.299 31.299 0 0 1-15.253-4.455A30.78 30.78 0 0 1 8.867 53.197a30.292 30.292 0 0 1-3.864-15.231A30.308 30.308 0 0 1 9.3 22.847a30.814 30.814 0 0 1 11.326-11.025A31.316 31.316 0 0 1 36 7.792h2.931l-1.897-2.928a1.847 1.847 0 0 1 .573-2.57Zm10.196 9.753a1.898 1.898 0 0 1 2.545-.786 31.006 31.006 0 0 1 5.803 3.879c.79.669.882 1.844.204 2.624-.677.78-1.868.87-2.658.202a27.236 27.236 0 0 0-5.097-3.407 1.85 1.85 0 0 1-.797-2.512Zm11.842 9.475a1.9 1.9 0 0 1 2.6.581 30.286 30.286 0 0 1 3.338 7.12c.312.98-.24 2.024-1.234 2.332a1.89 1.89 0 0 1-2.364-1.217c-.7-2.2-1.684-4.3-2.93-6.25a1.847 1.847 0 0 1 .59-2.566Zm5.468 15.011c1.041 0 1.886.832 1.887 1.86a30.332 30.332 0 0 1-.976 7.653 1.887 1.887 0 0 1-2.295 1.34 1.86 1.86 0 0 1-1.357-2.265 26.66 26.66 0 0 0 .857-6.725c0-1.028.843-1.862 1.884-1.863Z" class="path-fill fill-path" clip-rule="evenodd" stroke="currentColor" stroke-width="1.5"/>
  </g>
</svg>
