<?xml version="1.0" encoding="UTF-8"?>
<svg version="1.1" xmlns="http://www.w3.org/2000/svg" width="1200" height="1200">
<path d="M0 0 C0.66136963 0.11323608 1.32273926 0.22647217 2.00415039 0.34313965 C48.51959951 8.34231728 93.93412346 21.58752261 137 41 C138.07636719 41.47791992 139.15273438 41.95583984 140.26171875 42.44824219 C155.58725596 49.26208742 170.45161352 56.65503579 185 65 C186.0636377 65.60859863 187.12727539 66.21719727 188.22314453 66.84423828 C216.75757579 83.25638764 243.75407211 101.86065516 269 123 C269.91023926 123.76159424 269.91023926 123.76159424 270.83886719 124.53857422 C272.6269399 126.040536 274.40884456 127.5494016 276.1875 129.0625 C276.68483643 129.48418457 277.18217285 129.90586914 277.69458008 130.34033203 C288.58111571 139.69538077 298.85855758 149.69393544 308.98632812 159.85595703 C310.89078505 161.76582994 312.80060819 163.67022149 314.7109375 165.57421875 C320.6866485 171.54638924 326.56019788 177.52834895 332 184 C332.94851645 185.08378874 333.89899732 186.1658618 334.8515625 187.24609375 C342.06579554 195.51776251 348.80373268 204.09002543 355.39306641 212.86523438 C356.96516569 214.95372361 358.54924023 217.03256084 360.13671875 219.109375 C366.79269717 227.84746372 373.04417352 236.77193815 379 246 C379.45842285 246.70431152 379.9168457 247.40862305 380.38916016 248.13427734 C405.59313911 286.93390517 425.8032111 328.33173138 441 372 C441.56364258 373.6089917 441.56364258 373.6089917 442.13867188 375.25048828 C459.9955033 426.80164416 471.00982399 482.72700469 471.203125 537.390625 C471.21010472 538.73572317 471.21714568 540.08082102 471.22424316 541.42591858 C471.24351812 545.70061657 471.2484189 549.97526329 471.25 554.25 C471.25088371 555.34137583 471.25088371 555.34137583 471.25178528 556.45479965 C471.2643614 578.4494201 470.85865967 600.15959367 468 622 C467.86078125 623.15790039 467.7215625 624.31580078 467.578125 625.50878906 C455.85623417 722.72993454 417.60453221 816.79635207 328.265625 931.48828125 C326.41730937 933.5373622 324.60989686 935.61076114 322.80737305 937.69970703 C319.28707662 941.72472396 315.60265903 945.54257806 311.81640625 949.31640625 C311.15720688 949.97656235 310.49800751 950.63671844 309.8188324 951.31687927 C308.43603165 952.70035506 307.05198924 954.08259083 305.66674805 955.46362305 C303.56769657 957.55731669 301.4740406 959.65629874 299.38085938 961.75585938 C298.02636214 963.10969571 296.67155469 964.46322175 295.31640625 965.81640625 C294.70156876 966.43326797 294.08673126 967.0501297 293.45326233 967.6856842 C289.12971381 971.9864214 284.62370746 976.02551359 280 980 C278.8704617 980.98495272 277.74144833 981.97050823 276.61328125 982.95703125 C269.48900159 989.13723197 262.23248809 995.05876333 254.68945312 1000.72265625 C252.97416295 1002.0195346 251.275414 1003.33592372 249.578125 1004.65625 C230.75910126 1019.18001287 210.58618808 1032.14003106 190 1044 C189.30310059 1044.40557129 188.60620117 1044.81114258 187.88818359 1045.22900391 C136.43253045 1075.06524849 80.20518291 1095.95347277 22 1108 C20.94006836 1108.21994629 19.88013672 1108.43989258 18.78808594 1108.66650391 C0.31438864 1112.43252984 -18.26554757 1114.99643101 -37 1117 C-38.63702881 1117.18006592 -38.63702881 1117.18006592 -40.30712891 1117.36376953 C-74.60805578 1120.96732706 -110.72543549 1120.75443957 -145 1117 C-146.22315918 1116.87109375 -147.44631836 1116.7421875 -148.70654297 1116.609375 C-223.15200438 1108.58631417 -294.97926512 1086.70330664 -454.91015625 986.6171875 C-457.76542868 984.18099681 -460.69000217 981.83967203 -463.625 979.5 C-468.56366078 975.488686 -473.00157274 971.09674725 -477.4453125 966.55859375 C-479.58772293 964.41290746 -481.75807262 962.40412979 -484.0625 960.4375 C-490.88730829 954.59166011 -497.13068729 948.14361062 -502.96484375 941.31640625 C-505.14797914 938.83157076 -507.39873871 936.42160319 -509.66308594 934.01098633 C-515.72950851 927.54919081 -521.48133553 920.9407094 -527 914 C-527.90777121 912.88323342 -528.81668852 911.76739779 -529.7265625 910.65234375 C-604.60466495 818.56607438 -604.60466495 818.56607438 -601.8125 781.51171875 C-600.15248405 770.66973961 -594.97919701 761.81478426 -586.59375 754.84375 C-576.86577452 747.92868309 -565.99726987 746.69035373 -554.31640625 748.390625 C-542.65902398 751.30030761 -535.15089909 759.12209798 -529 769 C-526.64876361 773.23222551 -524.47594419 777.54439223 -522.3125 781.875 C-506.41673239 813.19161773 -486.50895498 842.07752443 -464 869 C-463.56494141 869.52142578 -463.12988281 870.04285156 -462.68164062 870.58007812 C-449.23251479 886.64694637 -434.95800827 902.71117125 -418.96875 916.30859375 C-416.72218493 918.23867842 -414.55416096 920.24418139 -412.375 922.25 C-406.77256758 927.29815828 -400.88465799 931.92244425 -394.91259766 936.52001953 C-392.98739724 938.0097521 -391.0770228 939.5169948 -389.16796875 941.02734375 C-372.70602265 953.95322913 -355.17351093 965.61652682 -337 976 C-336.03344482 976.5583252 -336.03344482 976.5583252 -335.04736328 977.12792969 C-262.5489662 1018.87730531 -179.63250388 1042.06684613 -92.6875 1042.25 C-91.06970139 1042.25101212 -91.06970139 1042.25101212 -89.41921997 1042.25204468 C-21.23304657 1042.18469005 47.06298926 1027.73792526 109 999 C110.01787598 998.52949219 111.03575195 998.05898437 112.08447266 997.57421875 C159.2387049 975.65613932 202.28466966 946.99527397 240.35205078 911.53027344 C242.17438479 909.83806758 244.00689278 908.15725992 245.83984375 906.4765625 C254.35949014 898.68636609 254.35949014 898.68636609 262.140625 890.17578125 C264.24003551 887.71911811 266.43787248 885.37396279 268.65161133 883.02050781 C274.72581131 876.55994776 280.5093663 869.96956246 286 863 C286.50080078 862.37174316 287.00160156 861.74348633 287.51757812 861.09619141 C346.35387057 787.23823633 384.09002968 696.23356476 393 599 C393.08619598 598.03730698 393.17239197 597.07461395 393.26119995 596.08274841 C393.9189193 588.20354459 394.17336163 580.38132646 394.203125 572.4765625 C394.21018463 571.22462601 394.21724426 569.97268951 394.22451782 568.68281555 C394.24204121 564.66350171 394.24920993 560.64434407 394.25 556.625 C394.25029457 555.93978901 394.25058914 555.25457802 394.25089264 554.54860306 C394.25230554 534.21008983 394.00380802 514.16254696 391 494 C390.80898402 492.63719446 390.61909057 491.27423122 390.43017578 489.91113281 C379.93492076 415.0451222 352.44419763 342.05254849 309 280 C308.39430176 279.13060791 308.39430176 279.13060791 307.77636719 278.24365234 C297.09345883 262.9436959 285.70034221 248.14169492 273.125 234.34375 C271.17505276 232.19307289 269.26973871 230.01175029 267.375 227.8125 C264.62401109 224.64949662 261.72304311 221.69874424 258.73046875 218.765625 C256.99397728 216.99385492 255.40716374 215.14969627 253.8125 213.25 C249.46921414 208.21838089 244.52195901 203.86272944 239.58496094 199.43212891 C238.02604498 198.02353356 236.48323282 196.59943289 234.9453125 195.16796875 C228.50297839 189.17587723 221.88897871 183.47652144 215 178 C213.78773339 177.01044978 212.57549572 176.02086409 211.36328125 175.03125 C201.86746156 167.37691203 191.95458971 160.44621143 181.8125 153.6875 C180.87861954 153.06359879 180.87861954 153.06359879 179.9258728 152.42709351 C116.1717632 109.93450431 43.18403185 82.11802237 -33 73 C-34.21091309 72.85046875 -35.42182617 72.7009375 -36.66943359 72.546875 C-135.88506784 60.75032041 -237.26313234 81.64064461 -367 155 C-367.57959473 155.40379883 -368.15918945 155.80759766 -368.75634766 156.22363281 C-384.05061984 166.90257224 -398.61455756 178.45542533 -412.75 190.625 C-413.36407715 191.15134033 -413.9781543 191.67768066 -414.61083984 192.2199707 C-418.38099725 195.48645785 -421.94344425 198.89585427 -425.44628906 202.44677734 C-427.22452187 204.22445131 -429.07958787 205.87758286 -431 207.5 C-436.77094217 212.49258774 -441.95127957 217.86516637 -446.92578125 223.64453125 C-449.01401661 226.01591717 -451.15445761 228.3282377 -453.3112793 230.63696289 C-459.1475114 236.89052431 -464.68416132 243.29333997 -470 250 C-470.98805578 251.21112148 -471.9763537 252.42204543 -472.96484375 253.6328125 C-480.62129909 263.12933306 -487.55276418 273.04387309 -494.3125 283.1875 C-494.93640121 284.12138046 -494.93640121 284.12138046 -495.57290649 285.0741272 C-503.29470484 296.65959157 -510.54423709 308.48993581 -517.29516602 320.66943359 C-523.97540426 332.62462782 -530.3731831 341.0484021 -543.79296875 345.609375 C-555.27754165 347.64204277 -566.76272789 346.57868236 -576.6796875 340.3046875 C-585.05608628 334.16530917 -590.68627477 325.9078606 -592.40234375 315.578125 C-596.74044423 281.06829197 -558.10634247 237.95405132 -538 212 C-533.75896207 206.5896633 -529.41320381 201.27052404 -525 196 C-524.49227051 195.39317383 -523.98454102 194.78634766 -523.46142578 194.16113281 C-521.959464 192.3730601 -520.4505984 190.59115544 -518.9375 188.8125 C-518.30497314 188.06649536 -518.30497314 188.06649536 -517.65966797 187.30541992 C-508.17264127 176.26530061 -498.02137942 165.85755189 -487.71679688 155.58642578 C-485.73449756 153.6095399 -483.75767367 151.62728961 -481.78125 149.64453125 C-475.69128838 143.55108821 -469.60489061 137.54065066 -463 132 C-461.91613147 131.05157473 -460.83406113 130.10109007 -459.75390625 129.1484375 C-451.51574975 121.96264236 -442.99214827 115.22955141 -434.24169922 108.6796875 C-431.98969769 106.99228056 -429.74690663 105.29309558 -427.50390625 103.59375 C-405.20879618 86.81969492 -381.49098878 72.30891235 -357 59 C-356.20384277 58.56429687 -355.40768555 58.12859375 -354.58740234 57.6796875 C-273.8744563 13.68075935 -181.34625084 -7.49027167 0 0 Z " fill="#F12D45" transform="translate(729,44)"/>
<path d="M0 0 C6.60921918 3.87670163 12.00000778 8.56753807 17.37567139 13.98799133 C18.16795899 14.7748934 18.96024659 15.56179546 19.7765429 16.37254304 C22.41123446 18.99300592 25.03516455 21.62397657 27.65917969 24.25512695 C29.55323905 26.14348019 31.44786909 28.03124496 33.34318542 29.91833496 C37.94419541 34.50220414 42.53704932 39.09416083 47.12686935 43.68923179 C50.85887623 47.42528957 54.59363029 51.15857998 58.3303299 54.88994408 C58.86331159 55.42217735 59.39629329 55.95441062 59.94542594 56.50277218 C61.0283611 57.58417578 62.11129965 58.66557598 63.19424155 59.74697282 C73.33436962 69.87339352 83.4649206 80.00935264 93.59245232 90.1483688 C102.8488303 99.41468252 112.11660276 108.66950191 121.38989934 117.91888163 C130.92499329 127.42956954 140.45265571 136.94764251 149.9722302 146.47386521 C155.31159029 151.8167135 160.65375706 157.15667832 166.00362396 162.48900795 C170.55644752 167.02709094 175.10213148 171.57218258 179.63888159 176.12633649 C181.95149272 178.44744372 184.26820239 180.76417129 186.59164238 183.07444572 C189.11456058 185.58415814 191.62478867 188.10592862 194.13226318 190.63105774 C194.86251292 191.35170247 195.59276266 192.0723472 196.34514117 192.81482965 C204.69060892 201.28133302 208.94856799 210.00171809 209.3125 221.875 C209.00590956 236.21261196 201.87722551 245.5894859 192.02546692 255.36894226 C191.23997599 256.16052429 190.45448506 256.95210633 189.64519137 257.7676757 C187.02939686 260.40002748 184.40309954 263.02163189 181.77661133 265.64331055 C179.89151086 267.53575547 178.00699482 269.42876695 176.12313843 271.32244873 C171.54670585 275.91986542 166.96212027 280.50906583 162.37429164 285.09510764 C158.64319186 288.82489644 154.91466967 292.55724319 151.18793297 296.29139137 C150.11178363 297.36964004 149.03563343 298.44788784 147.95948237 299.52613479 C147.42374918 300.06291151 146.88801598 300.59968824 146.33604845 301.15273092 C136.21932015 311.28833269 126.09266693 321.41397327 115.96308424 331.5367258 C106.70965456 340.78458007 97.46949707 350.04556805 88.23542396 359.31274655 C78.73789183 368.84406211 69.23105924 378.36601095 59.71431178 387.8781417 C54.37789766 393.21231611 49.04525011 398.55012906 43.72245216 403.89789391 C39.19141168 408.45000748 34.65166998 412.99322157 30.10066626 417.52538022 C27.78207008 419.83485616 25.46897944 422.1493943 23.16396523 424.4724369 C20.65723923 426.99740635 18.13545641 429.5063469 15.60945129 432.01200867 C14.89463225 432.73934556 14.1798132 433.46668246 13.44333297 434.21605986 C3.91331036 443.58314883 -5.43454299 447.34576274 -18.69970703 447.38061523 C-29.20958694 447.14375611 -37.26777165 442.83089914 -44.80078125 435.61328125 C-53.2798954 425.53774418 -54.87335814 414.64428504 -54 402 C-51.86187354 389.29807926 -41.76220865 380.33608273 -33.02783203 371.68725586 C-31.81449477 370.4747662 -30.60182046 369.26161283 -29.38975525 368.04785156 C-26.11797032 364.77521044 -22.83705841 361.51186325 -19.55435801 358.25017619 C-16.1176634 354.8323113 -12.68953523 351.40587561 -9.26046753 347.98036194 C-2.77492594 341.50412237 3.71822081 335.0355644 10.21417344 328.56976944 C17.61310627 321.2044381 25.00346172 313.83052561 32.39312911 306.45590007 C47.58593251 291.29440392 62.78941021 276.14365074 78 261 C77.09164306 260.99916575 77.09164306 260.99916575 76.16493547 260.99831466 C10.24902968 260.93770624 -55.66687358 260.87463799 -121.58276367 260.79867554 C-123.0592168 260.7969751 -123.0592168 260.7969751 -124.56549726 260.79524031 C-145.95596014 260.77059007 -167.34642248 260.74549725 -188.7368843 260.71994839 C-199.2264449 260.70742231 -209.71600562 260.69499404 -220.20556641 260.68261719 C-221.77133986 260.6807672 -221.77133986 260.6807672 -223.3687451 260.67887984 C-257.21558743 260.63893511 -291.06243241 260.6054523 -324.90928477 260.57531309 C-359.68527094 260.54431245 -394.46124416 260.50680746 -429.23721425 260.46109388 C-434.14672918 260.45464328 -439.0562442 260.4482672 -443.96575928 260.44193649 C-445.41518348 260.44006404 -445.41518348 260.44006404 -446.89388898 260.43815375 C-462.46143249 260.4182344 -478.02897457 260.40519141 -493.59652697 260.39470672 C-509.23925506 260.38402513 -524.88196164 260.36613058 -540.52467304 260.34083296 C-549.82338977 260.32601525 -559.12207355 260.31676831 -568.42080219 260.31543317 C-574.62928988 260.31399727 -580.83774042 260.30536488 -587.04621123 260.29084408 C-590.58566617 260.28277286 -594.12504816 260.2778656 -597.66451192 260.28172119 C-601.47608342 260.28580032 -605.28752113 260.27451878 -609.09907532 260.26171303 C-610.19949667 260.26536271 -611.29991803 260.26901239 -612.43368548 260.27277267 C-624.3394027 260.20357512 -635.10774382 257.31574448 -644 249 C-653.26546798 238.12555854 -655.00012513 227.9017393 -654 214 C-652.60469255 204.73898876 -646.21272931 196.23319509 -639 190.5 C-629.80030606 184.2406004 -620.16713897 183.85132528 -609.34517097 183.8613348 C-608.1580747 183.85849258 -606.97097843 183.85565036 -605.74790955 183.85272202 C-602.44655638 183.84582386 -599.14525382 183.84338043 -595.84389705 183.8427946 C-592.25475486 183.84106508 -588.66562397 183.83357944 -585.07648838 183.82681805 C-578.78411151 183.81575963 -572.49173867 183.80838872 -566.19935417 183.80341911 C-556.84278553 183.79601283 -547.48623088 183.78292961 -538.12967048 183.76867336 C-522.3910074 183.74485421 -506.65234183 183.72565365 -490.91366959 183.70907402 C-475.32761418 183.69264011 -459.74156342 183.67416035 -444.15551376 183.65294075 C-442.70254782 183.65096434 -442.70254782 183.65096434 -441.22022903 183.648948 C-436.30109135 183.64224603 -431.38195372 183.63550744 -426.4628161 183.62875474 C-391.60932982 183.58097589 -356.75583921 183.5377954 -321.90234375 183.49731445 C-288.04003586 183.45797422 -254.17773155 183.41655404 -220.31542969 183.37231445 C-218.7500958 183.37027066 -218.7500958 183.37027066 -217.153139 183.36818558 C-206.67344013 183.35450035 -196.1937413 183.3407728 -185.71404252 183.32701423 C-164.36517865 183.29898675 -143.01631441 183.27124178 -121.66744995 183.2436676 C-120.68583693 183.2423994 -119.70422392 183.2411312 -118.69286505 183.23982458 C-53.12858254 183.15515092 12.43570815 183.07706306 78 183 C77.36131422 182.36592319 76.72262844 181.73184637 76.06458855 181.07855511 C60.50095234 165.62550062 44.95129494 150.15850148 29.4169445 134.67600536 C21.90420996 127.18901583 14.38687387 119.7067597 6.85839844 112.2355957 C0.29404879 105.7211941 -6.26136536 99.19795254 -12.80634964 92.66409284 C-16.26988475 89.20705708 -19.73763286 85.75450755 -23.2161293 82.31252098 C-26.49544949 79.06734013 -29.76262169 75.81039502 -33.02117348 72.54436493 C-34.21400828 71.35289667 -35.41107896 70.16565039 -36.61284065 68.98318672 C-47.08157162 58.67426836 -53.99024899 49.57597238 -54.375 34.4375 C-54.40495285 23.03718365 -50.53099109 14.46291255 -42.61328125 6.19921875 C-31.09928094 -3.4904407 -13.78131139 -6.76624571 0 0 Z " fill="#F02D45" transform="translate(654,378)"/>
</svg>
