<?xml version="1.0" encoding="UTF-8"?>
<svg version="1.1" xmlns="http://www.w3.org/2000/svg" width="72" height="72">
<path d="M0 0 C1.73443359 0.00773437 1.73443359 0.00773437 3.50390625 0.015625 C4.65761719 0.01046875 5.81132813 0.0053125 7 0 C10.06640625 0.265625 10.06640625 0.265625 13.06640625 2.265625 C13.28778018 4.89259564 13.3480265 7.27456464 13.25390625 9.890625 C13.23360352 10.95023438 13.23360352 10.95023438 13.21289062 12.03125 C13.17751665 13.77636628 13.12370846 15.52109108 13.06640625 17.265625 C11.12890625 17.828125 11.12890625 17.828125 9.06640625 18.265625 C8.06640625 17.265625 8.06640625 17.265625 7.96875 14.76171875 C7.98035156 13.75238281 7.99195313 12.74304688 8.00390625 11.703125 C8.01292969 10.69121094 8.02195313 9.67929687 8.03125 8.63671875 C8.04285156 7.85425781 8.05445313 7.07179688 8.06640625 6.265625 C5.42640625 6.265625 2.78640625 6.265625 0.06640625 6.265625 C0.06640625 18.805625 0.06640625 31.345625 0.06640625 44.265625 C2.70640625 44.265625 5.34640625 44.265625 8.06640625 44.265625 C8.06640625 42.615625 8.06640625 40.965625 8.06640625 39.265625 C10.00390625 38.703125 10.00390625 38.703125 12.06640625 38.265625 C13.06640625 39.265625 13.06640625 39.265625 13.06640625 44.265625 C17.35640625 44.265625 21.64640625 44.265625 26.06640625 44.265625 C26.56140625 46.740625 26.56140625 46.740625 27.06640625 49.265625 C26.06640625 50.265625 26.06640625 50.265625 23.7822113 50.38587952 C22.77183304 50.38365891 21.76145477 50.38143829 20.72045898 50.37915039 C19.57935165 50.37907486 18.43824432 50.37899933 17.26255798 50.37892151 C16.02091385 50.37376022 14.77926971 50.36859894 13.5 50.36328125 C11.60436058 50.36115883 11.60436058 50.36115883 9.67042542 50.35899353 C6.30515736 50.35433082 2.93995635 50.3453398 -0.42529297 50.33428955 C-3.85709045 50.32407346 -7.28889484 50.31949549 -10.72070312 50.31445312 C-17.45835199 50.3033988 -24.195969 50.2866421 -30.93359375 50.265625 C-31.26359375 48.615625 -31.59359375 46.965625 -31.93359375 45.265625 C-29.95359375 44.770625 -29.95359375 44.770625 -27.93359375 44.265625 C-27.94406738 43.53448486 -27.95454102 42.80334473 -27.96533203 42.05004883 C-28.00699664 38.72610941 -28.03295331 35.40222505 -28.05859375 32.078125 C-28.07535156 30.92763672 -28.09210937 29.77714844 -28.109375 28.59179688 C-28.11582031 27.47998047 -28.12226563 26.36816406 -28.12890625 25.22265625 C-28.13937988 24.20147705 -28.14985352 23.18029785 -28.16064453 22.12817383 C-27.92078979 19.10419874 -27.30444281 16.9637134 -25.93359375 14.265625 C-23.22796632 12.91281129 -21.0146572 13.05953138 -17.99609375 13.015625 C-16.40474609 12.97695313 -16.40474609 12.97695313 -14.78125 12.9375 C-11.93359375 13.265625 -11.93359375 13.265625 -10.27392578 14.38500977 C-8.30339162 17.14985943 -8.59495049 19.31890513 -8.640625 22.68359375 C-8.65029297 23.93720703 -8.65996094 25.19082031 -8.66992188 26.48242188 C-8.69505859 27.79275391 -8.72019531 29.10308594 -8.74609375 30.453125 C-8.76114408 31.78839663 -8.77483188 33.12368437 -8.78710938 34.45898438 C-8.82251681 37.72827076 -8.87190485 40.99674593 -8.93359375 44.265625 C-7.61359375 44.265625 -6.29359375 44.265625 -4.93359375 44.265625 C-4.94406738 43.00379395 -4.95454102 41.74196289 -4.96533203 40.44189453 C-5.00146274 35.77167586 -5.02446891 31.10146961 -5.04345703 26.43115234 C-5.05353046 24.40769373 -5.0671897 22.38424972 -5.08447266 20.36083984 C-5.10866222 17.45666911 -5.12006324 14.55269039 -5.12890625 11.6484375 C-5.13922882 10.74006134 -5.14955139 9.83168518 -5.16018677 8.89578247 C-5.16033783 8.05506195 -5.16048889 7.21434143 -5.16064453 6.34814453 C-5.16508575 5.60646027 -5.16952698 4.864776 -5.17410278 4.10061646 C-4.72712444 0.69034353 -3.21105792 0.29074825 0 0 Z M-21.93359375 19.265625 C-21.93359375 27.515625 -21.93359375 35.765625 -21.93359375 44.265625 C-19.29359375 44.265625 -16.65359375 44.265625 -13.93359375 44.265625 C-13.93359375 36.015625 -13.93359375 27.765625 -13.93359375 19.265625 C-16.57359375 19.265625 -19.21359375 19.265625 -21.93359375 19.265625 Z " fill="#000C24" transform="translate(31.93359375,17.734375)"/>
<path d="M0 0 C3.52035554 2.42513382 5.68761375 4.81788346 6.8125 8.9375 C6.62109375 11.62890625 6.62109375 11.62890625 6.1875 14.5 C5.52530058 18.38096299 5.52530058 18.38096299 7.06640625 21.80078125 C8.1628862 22.78532357 9.28757976 23.73958415 10.44140625 24.65625 C11.8125 25.9375 11.8125 25.9375 12.1875 28.8125 C12.06375 29.51375 11.94 30.215 11.8125 30.9375 C6.46097115 30.61316492 3.52969957 27.44045176 -0.1875 23.9375 C-0.8475 24.2675 -1.5075 24.5975 -2.1875 24.9375 C-7.48558682 25.28491553 -10.94516415 25.47277987 -15.1875 21.9375 C-18.56608037 18.01104173 -19.85626201 14.98103555 -19.57421875 9.89453125 C-18.7102502 5.52232678 -16.24362023 2.7938137 -12.875 0.0625 C-8.28752325 -1.8578391 -4.66625847 -1.55541949 0 0 Z M-13.1875 7.9375 C-14.27555146 10.2941226 -14.27555146 10.2941226 -14.1875 12.9375 C-13.0459081 15.2206838 -11.99737317 17.12762683 -10.1875 18.9375 C-6.32952645 19.30145977 -4.02761302 19.49757535 -0.75 17.3125 C1.28411336 14.22064769 1.41855429 12.57382575 0.8125 8.9375 C-0.6875 6.4375 -0.6875 6.4375 -3.1875 4.9375 C-7.51726858 4.30607542 -10.15933295 4.68502427 -13.1875 7.9375 Z " fill="#000C24" transform="translate(60.1875,34.0625)"/>
<path d="M0 0 C1.86978516 0.05994141 1.86978516 0.05994141 3.77734375 0.12109375 C5.02644531 0.14300781 6.27554688 0.16492188 7.5625 0.1875 C10.71484375 0.55859375 10.71484375 0.55859375 12.71484375 2.55859375 C12.94189453 5.35595703 12.94189453 5.35595703 12.91015625 8.87890625 C12.90371094 10.13574219 12.89726563 11.39257812 12.890625 12.6875 C12.87386719 14.00621094 12.85710937 15.32492188 12.83984375 16.68359375 C12.82981358 18.02343096 12.82068779 19.36327527 12.8125 20.703125 C12.7888645 23.98845948 12.75591609 27.2734384 12.71484375 30.55859375 C10.77734375 31.12109375 10.77734375 31.12109375 8.71484375 31.55859375 C7.71484375 30.55859375 7.71484375 30.55859375 7.60131836 28.24194336 C7.60655518 27.24171143 7.61179199 26.24147949 7.6171875 25.2109375 C7.62041016 24.13134766 7.62363281 23.05175781 7.62695312 21.93945312 C7.63533203 20.80314453 7.64371094 19.66683594 7.65234375 18.49609375 C7.65685547 17.35591797 7.66136719 16.21574219 7.66601562 15.04101562 C7.67784628 12.21349024 7.69432965 9.38606735 7.71484375 6.55859375 C5.07484375 6.55859375 2.43484375 6.55859375 -0.28515625 6.55859375 C-0.28515625 12.82859375 -0.28515625 19.09859375 -0.28515625 25.55859375 C-1.93515625 25.88859375 -3.58515625 26.21859375 -5.28515625 26.55859375 C-6.61885666 22.55749252 -6.508511 18.87355972 -6.53515625 14.68359375 C-6.55578125 13.88050781 -6.57640625 13.07742187 -6.59765625 12.25 C-6.67090638 1.13429205 -6.67090638 1.13429205 0 0 Z " fill="#000C24" transform="translate(54.28515625,4.44140625)"/>
</svg>
