<svg xmlns="http://www.w3.org/2000/svg" fill="currentColor" viewBox="0 0 72 72" class="icon--decorative" role="presentation">
  <title>Browser with link</title>
  <g class="browsers_browser--hyperlink">
      <path class="path-fill fill-path" fill-rule="evenodd" d="M1.28 12.146C1.28 8.73 4.075 6 7.474 6h54.493c3.399 0 6.192 2.73 6.192 6.146v18.029a2 2 0 0 1-4 0V21.28H5.281v36.47c0 1.164.96 2.146 2.192 2.146h13.51a2 2 0 0 1 0 4H7.472c-3.4 0-6.192-2.731-6.192-6.146V12.146Zm4 5.134h58.878v-5.134c0-1.165-.96-2.146-2.192-2.146H7.473c-1.232 0-2.192.982-2.192 2.146v5.134Z" clip-rule="evenodd"/>
      <path class="path-fill fill-path" d="M37.167 69.99c-2.52 0-4.903-1.016-6.68-2.869-1.787-1.853-2.768-4.314-2.768-6.926 0-2.613.98-5.074 2.768-6.927l8.082-8.39c1.686-1.748 3.922-2.774 6.314-2.87 2.374-.104 4.701.732 6.516 2.338 1.814 1.606 2.969 3.848 3.253 6.3a10.038 10.038 0 0 1-1.741 6.917c-.596.845-1.741 1.035-2.557.418a1.945 1.945 0 0 1-.403-2.651 6.126 6.126 0 0 0 1.063-4.238 6.067 6.067 0 0 0-1.989-3.858A5.726 5.726 0 0 0 45.04 45.8a5.672 5.672 0 0 0-3.867 1.758l-8.092 8.39a6.086 6.086 0 0 0-1.695 4.246c0 1.606.605 3.107 1.695 4.248a5.617 5.617 0 0 0 4.087 1.757c1.54 0 2.997-.627 4.096-1.757l1.577-1.635a1.79 1.79 0 0 1 2.593 0 1.954 1.954 0 0 1 0 2.69l-1.576 1.634C42.07 68.983 39.697 70 37.177 70l-.01-.01Z"/>
      <path class="path-fill fill-path" d="M52.526 64a9.762 9.762 0 0 1-6.363-2.348 9.804 9.804 0 0 1-3.376-6.301 9.828 9.828 0 0 1 1.236-6.035c.171-.305.361-.6.58-.884a1.898 1.898 0 1 1 3.072 2.233 6.045 6.045 0 0 0-1.113 4.239 6 6 0 0 0 2.064 3.86 6.045 6.045 0 0 0 4.137 1.434 5.988 5.988 0 0 0 4.014-1.758l8.388-8.383a5.972 5.972 0 0 0 1.76-4.248 5.989 5.989 0 0 0-1.76-4.249 5.98 5.98 0 0 0-4.251-1.758c-1.608 0-3.11.627-4.242 1.758l-1.322 1.321a1.907 1.907 0 0 1-2.691 0 1.904 1.904 0 0 1 0-2.69l1.322-1.32A9.744 9.744 0 0 1 60.914 36a9.728 9.728 0 0 1 6.933 2.87 9.77 9.77 0 0 1 2.872 6.929 9.715 9.715 0 0 1-2.872 6.929l-8.388 8.383a9.79 9.79 0 0 1-6.553 2.87h-.39l.01.019Z"/>
  </g>
</svg>