<?xml version="1.0" encoding="UTF-8"?>
<svg version="1.1" xmlns="http://www.w3.org/2000/svg" width="72" height="72">
<path d="M0 0 C1.11761719 0.41765625 2.23523438 0.8353125 3.38671875 1.265625 C6.49802206 2.84412334 7.52433583 3.82361746 9.3125 6.75 C9.70068359 8.9765625 9.70068359 8.9765625 9.7109375 11.375 C9.71673828 12.68210937 9.71673828 12.68210937 9.72265625 14.015625 C9.71105469 14.91796875 9.69945312 15.8203125 9.6875 16.75 C9.69910156 17.65234375 9.71070313 18.5546875 9.72265625 19.484375 C9.71878906 20.35578125 9.71492188 21.2271875 9.7109375 22.125 C9.70755371 22.91648437 9.70416992 23.70796875 9.70068359 24.5234375 C9.21365628 27.31695267 8.21789706 28.67434777 6.3125 30.75 C3.421875 32.234375 3.421875 32.234375 0.0625 33.5 C-1.03578125 33.92796875 -2.1340625 34.3559375 -3.265625 34.796875 C-9.96174011 36.66200295 -14.85353623 35.72132668 -21.0625 32.875 C-21.69027344 32.60558594 -22.31804688 32.33617187 -22.96484375 32.05859375 C-27.54778519 30.02942961 -27.54778519 30.02942961 -28.6875 27.75 C-28.95422816 24.10996889 -28.91903718 20.46121401 -28.9375 16.8125 C-28.958125 15.79736328 -28.97875 14.78222656 -29 13.73632812 C-29.00515625 12.76244141 -29.0103125 11.78855469 -29.015625 10.78515625 C-29.0249707 9.8919165 -29.03431641 8.99867676 -29.04394531 8.07836914 C-28.61326289 5.26506899 -27.91989344 4.45814654 -25.6875 2.75 C-22.76171875 1.36328125 -22.76171875 1.36328125 -19.375 0.0625 C-18.26511719 -0.37449219 -17.15523437 -0.81148437 -16.01171875 -1.26171875 C-9.97185826 -3.05735295 -5.81597195 -2.24262797 0 0 Z M-17.6875 5.75 C-16.82950736 7.94324231 -16.82950736 7.94324231 -14.5 8.9375 C-11.1028383 9.91890227 -9.07618844 9.70767282 -5.6875 8.75 C-3.82948761 7.31308045 -3.82948761 7.31308045 -2.6875 5.75 C-8.3322992 3.24120036 -11.94512846 3.66186489 -17.6875 5.75 Z M-23.6875 10.75 C-23.6875 15.37 -23.6875 19.99 -23.6875 24.75 C-21.521875 25.74 -21.521875 25.74 -19.3125 26.75 C-18.09433594 27.306875 -18.09433594 27.306875 -16.8515625 27.875 C-14.76751567 28.87495013 -14.76751567 28.87495013 -12.6875 28.75 C-12.6875 24.13 -12.6875 19.51 -12.6875 14.75 C-16.3175 13.43 -19.9475 12.11 -23.6875 10.75 Z M-2.25 12.75 C-3.714375 13.41 -5.17875 14.07 -6.6875 14.75 C-6.6875 19.37 -6.6875 23.99 -6.6875 28.75 C-3.3875 27.76 -0.0875 26.77 3.3125 25.75 C3.3125 20.8 3.3125 15.85 3.3125 10.75 C1.35507992 10.75 -0.50013691 11.96132931 -2.25 12.75 Z " fill="#000C24" transform="translate(30.6875,35.25)"/>
<path d="M0 0 C2.3203125 1.38671875 2.3203125 1.38671875 4.3203125 4.38671875 C4.56842308 7.24576039 4.69051207 9.96556253 4.6953125 12.82421875 C4.71980469 13.58798828 4.74429688 14.35175781 4.76953125 15.13867188 C4.78861478 18.79316805 4.77612265 20.75702166 2.58984375 23.77734375 C-2.44485333 27.34755923 -7.96975898 29.85990195 -14.2421875 29.38671875 C-19.80396961 28.42676703 -25.64700192 26.41940433 -29.6796875 22.38671875 C-30.17791117 19.28463132 -30.09630109 16.1493224 -30.1171875 13.01171875 C-30.15005859 12.14804687 -30.18292969 11.284375 -30.21679688 10.39453125 C-30.27081427 4.03030045 -30.27081427 4.03030045 -27.390625 0.89453125 C-17.40728958 -4.65815963 -10.37609024 -4.81230926 0 0 Z M-18.6796875 4.38671875 C-15.39264034 5.67157481 -15.39264034 5.67157481 -11.6796875 6.38671875 C-9.23822744 5.163336 -9.23822744 5.163336 -7.6796875 3.38671875 C-11.74199939 1.3555628 -15.01284375 1.94215625 -18.6796875 4.38671875 Z M-23.6796875 8.38671875 C-23.6796875 12.01671875 -23.6796875 15.64671875 -23.6796875 19.38671875 C-19.87541258 21.58810535 -19.87541258 21.58810535 -15.6796875 22.38671875 C-15.6796875 18.75671875 -15.6796875 15.12671875 -15.6796875 11.38671875 C-18.3196875 10.39671875 -20.9596875 9.40671875 -23.6796875 8.38671875 Z M-9.6796875 11.38671875 C-9.6796875 15.01671875 -9.6796875 18.64671875 -9.6796875 22.38671875 C-5.34739035 21.52630485 -5.34739035 21.52630485 -1.6796875 19.38671875 C-1.60742248 17.53384373 -1.5958753 15.67837997 -1.6171875 13.82421875 C-1.62621094 12.81230469 -1.63523437 11.80039062 -1.64453125 10.7578125 C-1.65613281 9.97535156 -1.66773438 9.19289063 -1.6796875 8.38671875 C-4.28908607 8.38671875 -7.3198864 10.35698736 -9.6796875 11.38671875 Z " fill="#000C24" transform="translate(52.6796875,5.61328125)"/>
<path d="M0 0 C1.57314184 3.14628368 1.26696326 6.48581488 1.3125 9.9375 C1.34150391 10.66646484 1.37050781 11.39542969 1.40039062 12.14648438 C1.46424271 17.50514788 1.46424271 17.50514788 -0.77734375 19.89453125 C-1.51082031 20.25933594 -2.24429688 20.62414062 -3 21 C-3.63679688 21.32484375 -4.27359375 21.6496875 -4.9296875 21.984375 C-11.4254411 24.54093666 -15.42461336 23.74259124 -21.8125 21.0625 C-25.8603652 19.2792696 -25.8603652 19.2792696 -27 17 C-27.17484831 14.7126402 -27.26720049 12.41858557 -27.3125 10.125 C-27.34988281 8.89007813 -27.38726562 7.65515625 -27.42578125 6.3828125 C-27 3 -27 3 -25.1796875 0.66796875 C-16.86471618 -5.69492149 -8.80359835 -4.58520747 0 0 Z M-15 2 C-14.67 2.66 -14.34 3.32 -14 4 C-13.01 4 -12.02 4 -11 4 C-11 3.34 -11 2.68 -11 2 C-12.32 2 -13.64 2 -15 2 Z M-21 7 C-21 9.64 -21 12.28 -21 15 C-18.525 15.495 -18.525 15.495 -16 16 C-16 13.69 -16 11.38 -16 9 C-18.475 8.01 -18.475 8.01 -21 7 Z M-10 9 C-10 11.64 -10 14.28 -10 17 C-8.35 16.34 -6.7 15.68 -5 15 C-5 12.69 -5 10.38 -5 8 C-7.9254644 7.7763932 -7.9254644 7.7763932 -10 9 Z " fill="#000C24" transform="translate(70,37)"/>
</svg>
