<?xml version="1.0" encoding="UTF-8"?>
<svg version="1.1" xmlns="http://www.w3.org/2000/svg" width="72" height="72">
<path d="M0 0 C2.69560781 1.39335593 3.33958181 2.35563028 5 5 C5 5.99 5 6.98 5 8 C5.80824219 7.96519531 6.61648437 7.93039063 7.44921875 7.89453125 C8.51785156 7.86746094 9.58648437 7.84039063 10.6875 7.8125 C11.74324219 7.77769531 12.79898438 7.74289063 13.88671875 7.70703125 C17.66283227 8.06237443 20.30050942 9.30050942 23 12 C23.04063832 13.66617115 23.042721 15.33388095 23 17 C24.65 17.66 26.3 18.32 28 19 C28 27.25 28 35.5 28 44 C20.63811646 47.68094177 13.36424421 51.1500222 5.8125 54.375 C4.77158203 54.83777344 3.73066406 55.30054688 2.65820312 55.77734375 C1.64306641 56.20917969 0.62792969 56.64101563 -0.41796875 57.0859375 C-1.32313232 57.4782959 -2.2282959 57.8706543 -3.16088867 58.27490234 C-9.20447293 59.81840955 -14.14222302 57.74508015 -19.5546875 55.09375 C-20.14170441 54.80898804 -20.72872131 54.52422607 -21.33352661 54.23083496 C-23.18523498 53.3295383 -25.02993624 52.41480791 -26.875 51.5 C-28.13500649 50.88587647 -29.39542005 50.27258739 -30.65625 49.66015625 C-39.82371069 45.17628931 -39.82371069 45.17628931 -41 44 C-41.30869464 39.88265224 -41.27840724 35.7524971 -41.3125 31.625 C-41.35600586 29.88089844 -41.35600586 29.88089844 -41.40039062 28.1015625 C-41.40876953 26.9878125 -41.41714844 25.8740625 -41.42578125 24.7265625 C-41.44036377 23.70127441 -41.45494629 22.67598633 -41.4699707 21.61962891 C-41 19 -41 19 -39.03198242 17.29833984 C-38.36142822 16.8698877 -37.69087402 16.44143555 -37 16 C-36.5359375 14.7625 -36.5359375 14.7625 -36.0625 13.5 C-35 11 -35 11 -33.0625 9.1875 C-28.43199798 7.39199922 -23.90817776 7.76791454 -19 8 C-18.566875 7.05125 -18.13375 6.1025 -17.6875 5.125 C-13.92962483 -1.8340281 -7.05365381 -0.88281024 0 0 Z M-9 5 C-9.66 5.66 -10.32 6.32 -11 7 C-10.67 7.33 -10.34 7.66 -10 8 C-8.47480724 7.91062197 -6.95318071 7.75462854 -5.4375 7.5625 C-4.61121094 7.46066406 -3.78492188 7.35882813 -2.93359375 7.25390625 C-2.29550781 7.17011719 -1.65742187 7.08632812 -1 7 C-4.08809695 5.23537317 -5.23312136 5 -9 5 Z M-14 13 C-14 14.32 -14 15.64 -14 17 C-13.33613281 16.98839844 -12.67226563 16.97679687 -11.98828125 16.96484375 C-3.21792619 16.87521968 -3.21792619 16.87521968 1 18 C1 16.68 1 15.36 1 14 C-3.96073422 12.67713754 -8.91111512 12.91106803 -14 13 Z M-30 14 C-30 14.66 -30 15.32 -30 16 C-27.03 16 -24.06 16 -21 16 C-21 15.34 -21 14.68 -21 14 C-23.97 14 -26.94 14 -30 14 Z M8 14 C8 14.66 8 15.32 8 16 C11.41656024 16.16677282 11.41656024 16.16677282 15 16 C15.66 15.34 16.32 14.68 17 14 C14.03 14 11.06 14 8 14 Z M3 20 C3 22.31 3 24.62 3 27 C6.63 25.68 10.26 24.36 14 23 C14 22.67 14 22.34 14 22 C10.37 21.34 6.74 20.68 3 20 Z M-28 22 C-24.8745041 24.64465038 -21.91211733 25.84414715 -18 27 C-18.33 25.02 -18.66 23.04 -19 21 C-22.04200046 21 -24.99532806 21.55486342 -28 22 Z M-13 24 C-8.22237362 25.01687046 -8.22237362 25.01687046 -3.5625 24.0625 C-3.046875 23.711875 -2.53125 23.36125 -2 23 C-5.78971948 21.10514026 -9.97870606 20.97870606 -13 24 Z M-36 26 C-36 30.62 -36 35.24 -36 40 C-23.62534696 46.26408461 -23.62534696 46.26408461 -11 52 C-11 47.05 -11 42.1 -11 37 C-14.78945321 35.161966 -18.58137666 33.32938946 -22.375 31.5 C-23.45523437 30.97535156 -24.53546875 30.45070313 -25.6484375 29.91015625 C-26.6796875 29.41386719 -27.7109375 28.91757812 -28.7734375 28.40625 C-29.72653809 27.94541016 -30.67963867 27.48457031 -31.66162109 27.00976562 C-33.88150607 25.86785344 -33.88150607 25.86785344 -36 26 Z M14.1171875 28.40625 C12.95058594 28.90253906 11.78398438 29.39882813 10.58203125 29.91015625 C9.34632115 30.44002717 8.11064449 30.9699761 6.875 31.5 C5.63165024 32.03027589 4.3881623 32.56022789 3.14453125 33.08984375 C0.09499056 34.39003552 -2.95268029 35.69461131 -6 37 C-6 41.95 -6 46.9 -6 52 C3.42177075 48.5206405 12.75482057 44.92920126 22 41 C22 36.05 22 31.1 22 26 C19.03852255 26 16.83487742 27.24529508 14.1171875 28.40625 Z M-12 30 C-10.515 30.99 -10.515 30.99 -9 32 C-7.68 31.34 -6.36 30.68 -5 30 C-7.31 30 -9.62 30 -12 30 Z " fill="#FFFFFF" transform="translate(43,7)"/>
</svg>
