<?xml version="1.0" encoding="UTF-8"?>
<svg version="1.1" xmlns="http://www.w3.org/2000/svg" width="289" height="289">
<path d="M0 0 C0.71559082 -0.00067474 1.43118164 -0.00134949 2.16845703 -0.00204468 C12.92481602 0.01407299 23.11233911 0.47295618 33.5625 3.25 C34.21492676 3.42160645 34.86735352 3.59321289 35.53955078 3.77001953 C55.12992876 9.05106819 74.21692005 17.85749386 89.5625 31.25 C90.80966797 32.3328125 90.80966797 32.3328125 92.08203125 33.4375 C94.60951544 35.67379937 97.09024571 37.95291348 99.5625 40.25 C100.29082031 40.90097656 101.01914063 41.55195312 101.76953125 42.22265625 C124.11147142 63.11538949 139.54259042 97.07345392 140.6887207 127.61328125 C140.76975546 131.63877902 140.80909481 135.66129642 140.8125 139.6875 C140.81317474 140.40309082 140.81384949 141.11868164 140.81454468 141.85595703 C140.79842701 152.61231602 140.33954382 162.79983911 137.5625 173.25 C137.39089355 173.90242676 137.21928711 174.55485352 137.04248047 175.22705078 C126.92449827 212.76033415 103.52408441 243.47909412 69.89453125 263.00390625 C48.37609253 275.04698399 25.70659476 280.47920995 1.125 280.5 C0.40940918 280.50067474 -0.30618164 280.50134949 -1.04345703 280.50204468 C-11.79981602 280.48592701 -21.98733911 280.02704382 -32.4375 277.25 C-33.08992676 277.07839355 -33.74235352 276.90678711 -34.41455078 276.72998047 C-71.94783415 266.61199827 -102.66659412 243.21158441 -122.19140625 209.58203125 C-134.23448399 188.06359253 -139.66670995 165.39409476 -139.6875 140.8125 C-139.68817474 140.09690918 -139.68884949 139.38131836 -139.68954468 138.64404297 C-139.67342701 127.88768398 -139.21454382 117.70016089 -136.4375 107.25 C-136.26589355 106.59757324 -136.09428711 105.94514648 -135.91748047 105.27294922 C-130.63643181 85.68257124 -121.83000614 66.59557995 -108.4375 51.25 C-107.715625 50.41855469 -106.99375 49.58710937 -106.25 48.73046875 C-104.01370063 46.20298456 -101.73458652 43.72225429 -99.4375 41.25 C-98.78652344 40.52167969 -98.13554688 39.79335938 -97.46484375 39.04296875 C-72.70479965 12.56546494 -35.43683632 0.02997095 0 0 Z M-24.4375 18.875 C-25.2634668 19.05321289 -26.08943359 19.23142578 -26.94042969 19.41503906 C-46.17024702 23.77773466 -66.67068416 32.7030646 -80.4375 47.25 C-79.17292969 48.47976562 -79.17292969 48.47976562 -77.8828125 49.734375 C-76.77577684 50.82264734 -75.66902061 51.91120398 -74.5625 53 C-74.00691406 53.53882813 -73.45132813 54.07765625 -72.87890625 54.6328125 C-67.55389086 59.89367108 -67.55389086 59.89367108 -66.4375 63.25 C-66.56746231 66.95392589 -66.69370107 69.33455516 -69.0625 72.25 C-72.71604101 73.78833306 -74.63687885 73.39018634 -78.4375 72.25 C-80.53505313 70.74289982 -82.38269455 69.11482504 -84.25 67.33203125 C-87.20909682 64.51560517 -90.3216322 61.89050103 -93.4375 59.25 C-109.69013044 80.12020021 -122.97274094 105.07165431 -122.4375 132.25 C-121.82229492 132.2593457 -121.20708984 132.26869141 -120.57324219 132.27832031 C-117.77718914 132.33211085 -114.9827938 132.41573819 -112.1875 132.5 C-110.73537109 132.52126953 -110.73537109 132.52126953 -109.25390625 132.54296875 C-102.12742121 132.78870961 -102.12742121 132.78870961 -98.76171875 135.0390625 C-96.49280791 138.82727352 -97.41639618 141.02943753 -98.4375 145.25 C-101.62170845 147.37280563 -102.64287255 147.53019537 -106.32421875 147.6640625 C-107.26201172 147.70273438 -108.19980469 147.74140625 -109.16601562 147.78125 C-110.63071289 147.82765625 -110.63071289 147.82765625 -112.125 147.875 C-113.11306641 147.91367188 -114.10113281 147.95234375 -115.11914062 147.9921875 C-117.55840707 148.08645867 -119.99766595 148.17206218 -122.4375 148.25 C-122.61217015 154.1619129 -122.06024564 159.47588342 -120.8125 165.25 C-120.63428711 166.0759668 -120.45607422 166.90193359 -120.27246094 167.75292969 C-115.90976534 186.98274702 -106.9844354 207.48318416 -92.4375 221.25 C-91.20773438 219.98542969 -91.20773438 219.98542969 -89.953125 218.6953125 C-88.86485266 217.58827684 -87.77629602 216.48152061 -86.6875 215.375 C-86.14867187 214.81941406 -85.60984375 214.26382813 -85.0546875 213.69140625 C-79.79382892 208.36639086 -79.79382892 208.36639086 -76.4375 207.25 C-72.73357411 207.37996231 -70.35294484 207.50620107 -67.4375 209.875 C-65.89916694 213.52854101 -66.29731366 215.44937885 -67.4375 219.25 C-68.94460018 221.34755313 -70.57267496 223.19519455 -72.35546875 225.0625 C-75.17189483 228.02159682 -77.79699897 231.1341322 -80.4375 234.25 C-59.56729979 250.50263044 -34.61584569 263.78524094 -7.4375 263.25 C-7.4281543 262.63479492 -7.41880859 262.01958984 -7.40917969 261.38574219 C-7.35538915 258.58968914 -7.27176181 255.7952938 -7.1875 253 C-7.17332031 252.03191406 -7.15914063 251.06382812 -7.14453125 250.06640625 C-6.89879039 242.93992121 -6.89879039 242.93992121 -4.6484375 239.57421875 C-0.86022648 237.30530791 1.34193753 238.22889618 5.5625 239.25 C7.68530563 242.43420845 7.84269537 243.45537255 7.9765625 247.13671875 C8.01523438 248.07451172 8.05390625 249.01230469 8.09375 249.97851562 C8.14015625 251.44321289 8.14015625 251.44321289 8.1875 252.9375 C8.22617188 253.92556641 8.26484375 254.91363281 8.3046875 255.93164062 C8.39895867 258.37090707 8.48456218 260.81016595 8.5625 263.25 C14.4744129 263.42467015 19.78838342 262.87274564 25.5625 261.625 C26.3884668 261.44678711 27.21443359 261.26857422 28.06542969 261.08496094 C47.29524702 256.72226534 67.79568416 247.7969354 81.5625 233.25 C80.71945313 232.43015625 79.87640625 231.6103125 79.0078125 230.765625 C77.90077684 229.67735266 76.79402061 228.58879602 75.6875 227.5 C74.85412109 226.69175781 74.85412109 226.69175781 74.00390625 225.8671875 C68.68958349 220.61689273 68.68958349 220.61689273 67.5625 217.25 C67.625 213.6875 67.625 213.6875 68.5625 210.25 C71.21952034 207.82072426 72.79426029 207.28414399 76.375 207.125 C80.19370074 208.47277673 82.41772298 210.41956217 85.33984375 213.16796875 C88.32646586 215.96563058 91.44305931 218.60228764 94.5625 221.25 C110.81513044 200.37979979 124.09774094 175.42834569 123.5625 148.25 C122.63969238 148.23598145 122.63969238 148.23598145 121.69824219 148.22167969 C118.90218914 148.16788915 116.1077938 148.08426181 113.3125 148 C112.34441406 147.98582031 111.37632812 147.97164062 110.37890625 147.95703125 C103.25242121 147.71129039 103.25242121 147.71129039 99.88671875 145.4609375 C97.61780791 141.67272648 98.54139618 139.47056247 99.5625 135.25 C102.74670845 133.12719437 103.76787255 132.96980463 107.44921875 132.8359375 C108.38701172 132.79726562 109.32480469 132.75859375 110.29101562 132.71875 C111.26748047 132.6878125 112.24394531 132.656875 113.25 132.625 C114.23806641 132.58632812 115.22613281 132.54765625 116.24414062 132.5078125 C118.68340707 132.41354133 121.12266595 132.32793782 123.5625 132.25 C123.73717015 126.3380871 123.18524564 121.02411658 121.9375 115.25 C121.75928711 114.4240332 121.58107422 113.59806641 121.39746094 112.74707031 C117.03476534 93.51725298 108.1094354 73.01681584 93.5625 59.25 C92.74265625 60.09304687 91.9228125 60.93609375 91.078125 61.8046875 C89.98985266 62.91172316 88.90129602 64.01847939 87.8125 65.125 C87.27367187 65.68058594 86.73484375 66.23617187 86.1796875 66.80859375 C80.91882892 72.13360914 80.91882892 72.13360914 77.5625 73.25 C73.85857411 73.12003769 71.47794484 72.99379893 68.5625 70.625 C67.02416694 66.97145899 67.42231366 65.05062115 68.5625 61.25 C70.06960018 59.15244687 71.69767496 57.30480545 73.48046875 55.4375 C76.29689483 52.47840318 78.92199897 49.3658678 81.5625 46.25 C60.69229979 29.99736956 35.74084569 16.71475906 8.5625 17.25 C8.54848145 18.17280762 8.54848145 18.17280762 8.53417969 19.11425781 C8.48038915 21.91031086 8.39676181 24.7047062 8.3125 27.5 C8.29832031 28.46808594 8.28414062 29.43617187 8.26953125 30.43359375 C8.02379039 37.56007879 8.02379039 37.56007879 5.7734375 40.92578125 C1.98522648 43.19469209 -0.21693753 42.27110382 -4.4375 41.25 C-6.56030563 38.06579155 -6.71769537 37.04462745 -6.8515625 33.36328125 C-6.89023438 32.42548828 -6.92890625 31.48769531 -6.96875 30.52148438 C-6.9996875 29.54501953 -7.030625 28.56855469 -7.0625 27.5625 C-7.10117188 26.57443359 -7.13984375 25.58636719 -7.1796875 24.56835938 C-7.27395867 22.12909293 -7.35956218 19.68983405 -7.4375 17.25 C-13.3494129 17.07532985 -18.66338342 17.62725436 -24.4375 18.875 Z " fill="#000D24" transform="translate(145.4375,5.75)"/>
<path d="M0 0 C4.22086437 4.60457931 5.550544 9.10492055 6.0625 15.25 C5.43994141 18.51855469 5.43994141 18.51855469 4.2890625 22.171875 C4.0695694 22.87793884 3.85007629 23.58400269 3.62393188 24.3114624 C2.78955345 26.96422002 1.92720327 29.60696951 1.0625 32.25 C0.69394897 33.38655029 0.32539795 34.52310059 -0.05432129 35.6940918 C-2.70813076 43.86607257 -5.40443378 52.02336256 -8.12207031 60.17431641 C-9.33293468 63.80670384 -10.53542578 67.44180629 -11.73598671 71.07761002 C-12.67042316 73.90316021 -13.61031018 76.72687488 -14.55173874 79.55010223 C-14.99779612 80.89062189 -15.44192539 82.23178484 -15.88402176 83.57361603 C-16.49980393 85.44062287 -17.12399934 87.30484842 -17.74853516 89.16894531 C-18.09985504 90.225755 -18.45117493 91.2825647 -18.81314087 92.37139893 C-20.42309452 96.49322635 -21.62331705 99.55021682 -25.60546875 101.6706543 C-26.76691406 102.07195557 -27.92835938 102.47325684 -29.125 102.88671875 C-29.80296631 103.1254924 -30.48093262 103.36426605 -31.17944336 103.61027527 C-33.75895739 104.51013403 -36.34802043 105.37923193 -38.9375 106.25 C-41.29969131 107.05878821 -43.66165256 107.86824854 -46.0234375 108.67822266 C-52.87945105 111.02229331 -59.74861371 113.32606825 -66.62158203 115.61987305 C-70.23914572 116.82753969 -73.85335607 118.0449398 -77.46690369 119.26456165 C-80.28090079 120.21250073 -83.09714009 121.15363383 -85.91403198 122.09293175 C-87.24797946 122.53897201 -88.58111294 122.98745517 -89.9133606 123.43854713 C-108.31976783 129.66336623 -108.31976783 129.66336623 -116.1171875 126.25390625 C-120.93417865 123.59732529 -123.88710837 119.80430653 -125.49989319 114.61392212 C-127.27944859 105.00088536 -121.64291662 93.6509196 -118.59765625 84.6015625 C-118.06913385 83.01516492 -117.54110205 81.42860382 -117.01353455 79.84188843 C-115.91296644 76.53734288 -114.80720743 73.23459606 -113.69750977 69.93310547 C-112.27829706 65.70968862 -110.87125336 61.48233648 -109.46790409 57.25362587 C-108.38198624 53.98529294 -107.29021686 50.71893856 -106.19662285 47.45316696 C-105.67546523 45.89485975 -105.15599017 44.33598874 -104.6382618 42.77653885 C-103.91451348 40.59982526 -103.18304292 38.42585809 -102.44946289 36.25244141 C-102.03579971 35.01765045 -101.62213654 33.7828595 -101.19593811 32.51065063 C-98.28547537 24.96955496 -98.28547537 24.96955496 -94.27612305 22.8293457 C-93.11636963 22.42804443 -91.95661621 22.02674316 -90.76171875 21.61328125 C-90.0843718 21.3745076 -89.40702484 21.13573395 -88.70915222 20.88972473 C-86.12548059 19.98857721 -83.53198117 19.11954149 -80.9375 18.25 C-78.55931769 17.44085652 -76.18123294 16.63142627 -73.80322266 15.82177734 C-66.18773416 13.23735635 -58.55766301 10.69737808 -50.92590332 8.16149902 C-48.00350814 7.18911609 -45.0826185 6.21225279 -42.16170216 5.23543835 C-39.33397616 4.29045374 -36.50530367 3.34832935 -33.67633629 2.40706825 C-32.33207585 1.95942395 -30.98810829 1.51089906 -29.64444923 1.06145287 C-27.77541033 0.4367419 -25.90494562 -0.18369832 -24.03442383 -0.80395508 C-22.97459793 -1.15669998 -21.91477203 -1.50944489 -20.8228302 -1.87287903 C-13.35153988 -4.14410103 -6.86857946 -4.09191968 0 0 Z M-21.54858398 16.20263672 C-22.5490979 16.51504051 -22.5490979 16.51504051 -23.56982422 16.83375549 C-29.71392709 18.76061737 -35.84239038 20.73772555 -41.96609402 22.72836113 C-46.07742736 24.06477812 -50.19236174 25.38545496 -54.32055664 26.66894531 C-58.31685841 27.91169386 -62.29900732 29.19254666 -66.27424812 30.50104141 C-67.78772164 30.99208137 -69.30562911 31.46967476 -70.82775688 31.93319321 C-79.08644524 34.21424449 -79.08644524 34.21424449 -85.60690308 39.35957336 C-86.69224825 41.97066346 -87.31978878 44.49133509 -87.9375 47.25 C-88.68229929 49.45483873 -89.44708091 51.65298895 -90.22753906 53.84545898 C-91.05604146 56.31122852 -91.88108078 58.77816366 -92.703125 61.24609375 C-93.14568338 62.56987264 -93.58837382 63.89360739 -94.03118896 65.21730042 C-94.9508837 67.96898246 -95.86829665 70.72141226 -96.78417969 73.47436523 C-97.958179 77.00220448 -99.13905074 80.52770121 -100.32172012 84.05264187 C-101.23418184 86.77532081 -102.1425003 89.49936819 -103.04961395 92.22383308 C-103.48359652 93.5252678 -103.91899543 94.82623111 -104.35584259 96.12670708 C-104.96320043 97.93647077 -105.56427073 99.74834093 -106.16503906 101.56030273 C-106.50827209 102.58937241 -106.85150513 103.61844208 -107.20513916 104.67869568 C-108.07446327 107.28528088 -108.07446327 107.28528088 -107.9375 110.25 C-96.29188575 107.90742316 -85.04830569 104.04757546 -73.76302624 100.38967896 C-70.06919036 99.1925378 -66.37182501 98.0114292 -62.66137695 96.86669922 C-59.04716401 95.75133848 -55.44725692 94.5978696 -51.8540287 93.41671753 C-50.49126296 92.97588619 -49.12407664 92.54847088 -47.75267601 92.13528442 C-40.19575121 90.03626066 -40.19575121 90.03626066 -34.36203003 85.17173767 C-33.27632032 82.55686523 -32.60079449 80.00207594 -31.9375 77.25 C-31.18941766 75.04627302 -30.42492802 72.84807349 -29.64746094 70.65454102 C-28.81895854 68.18877148 -27.99391922 65.72183634 -27.171875 63.25390625 C-26.72931662 61.93012736 -26.28662618 60.60639261 -25.84381104 59.28269958 C-24.9241163 56.53101754 -24.00670335 53.77858774 -23.09082031 51.02563477 C-21.916821 47.49779552 -20.73594926 43.97229879 -19.55327988 40.44735813 C-18.64081816 37.72467919 -17.7324997 35.00063181 -16.82538605 32.27616692 C-16.39140348 30.9747322 -15.95600457 29.67376889 -15.51915741 28.37329292 C-14.91179957 26.56352923 -14.31072927 24.75165907 -13.70996094 22.93969727 C-13.19511139 21.39609276 -13.19511139 21.39609276 -12.66986084 19.82130432 C-11.80053673 17.21471912 -11.80053673 17.21471912 -11.9375 14.25 C-15.50274173 14.25 -18.14049838 15.13414537 -21.54858398 16.20263672 Z " fill="#000D25" transform="translate(205.9375,83.75)"/>
<path d="M0 0 C4.13316732 2.06658366 6.28257207 3.74917159 8 8 C8.5822518 12.22699682 8.44569111 15.92095837 6.8125 19.875 C4.1632205 22.98105182 2.01004455 24.69533521 -2.11328125 25.3203125 C-7.54685813 25.59427436 -10.79146909 24.69529544 -15 21 C-17.72514947 16.58337844 -17.80172743 12.04056354 -17 7 C-13.08590038 -0.26072755 -7.58830112 -0.8496104 0 0 Z " fill="#000D25" transform="translate(149,134)"/>
</svg>
