<svg class="📦w_24px 📦h_24px 📦fill_none 📦dspl_flex ub-box-szg_border-box" viewBox="0 0 24 24" xmlns="http://www.w3.org/2000/svg"><path d="M12 7.4C9.44932 7.4 7.4 9.44932 7.4 12C7.4 14.5507 9.44932 16.6 12 16.6C14.5507 16.6 16.6 14.5507 16.6 12C16.6 9.44873 14.5092 7.4 12 7.4ZM12 15.1727C10.2552 15.1727 8.82727 13.7448 8.82727 12C8.82727 10.2552 10.2552 8.82727 12 8.82727C13.7448 8.82727 15.1727 10.2552 15.1727 12C15.1727 13.7448 13.7448 15.1727 12 15.1727Z" fill="#8F95B2" stroke="#8F95B2" stroke-width="0.2"></path><path d="M5.45455 2.9C4.00732 2.9 2.9 4.05041 2.9 5.45455C2.9 6.85977 4.04932 8.00909 5.45455 8.00909C6.85977 8.00909 8.00909 6.85977 8.00909 5.45455C8.00909 4.04932 6.85977 2.9 5.45455 2.9ZM5.45455 6.58182C4.81432 6.58182 4.32727 6.09477 4.32727 5.45455C4.32727 4.81432 4.81432 4.32727 5.45455 4.32727C6.09477 4.32727 6.58182 4.81432 6.58182 5.45455C6.58182 6.09262 6.05604 6.58182 5.45455 6.58182Z" fill="#8F95B2" stroke="#8F95B2" stroke-width="0.2"></path><path d="M5.45455 15.9909C4.04932 15.9909 2.9 17.1402 2.9 18.5454C2.9 19.9507 4.04932 21.1 5.45455 21.1C6.85977 21.1 8.00909 19.9507 8.00909 18.5454C8.00909 17.1402 6.85977 15.9909 5.45455 15.9909ZM5.45455 19.6727C4.81432 19.6727 4.32727 19.1857 4.32727 18.5454C4.32727 17.9052 4.81432 17.4182 5.45455 17.4182C6.09477 17.4182 6.58182 17.9052 6.58182 18.5454C6.58182 19.1835 6.05604 19.6727 5.45455 19.6727Z" fill="#8F95B2" stroke="#8F95B2" stroke-width="0.2"></path><path d="M18.5463 15.9909C17.1411 15.9909 15.9918 17.1402 15.9918 18.5454C15.9918 19.9507 17.1411 21.1 18.5463 21.1C19.9516 21.1 21.1009 19.9507 21.1009 18.5454C21.1009 17.1402 19.9516 15.9909 18.5463 15.9909ZM18.5463 19.6727C17.9061 19.6727 17.4191 19.1857 17.4191 18.5454C17.4191 17.9052 17.9061 17.4182 18.5463 17.4182C19.1866 17.4182 19.6736 17.9052 19.6736 18.5454C19.6736 19.1835 19.1478 19.6727 18.5463 19.6727Z" fill="#8F95B2" stroke="#8F95B2" stroke-width="0.2"></path><path d="M18.5463 2.9C17.1411 2.9 15.9918 4.04932 15.9918 5.45455C15.9918 6.85977 17.1411 8.00909 18.5463 8.00909C19.9516 8.00909 21.1009 6.85977 21.1009 5.45455C21.1009 4.04932 19.9516 2.9 18.5463 2.9ZM18.5463 6.58182C17.9061 6.58182 17.4191 6.09477 17.4191 5.45455C17.4191 4.81432 17.9061 4.32727 18.5463 4.32727C19.1866 4.32727 19.6736 4.81432 19.6736 5.45455C19.6736 6.09262 19.1478 6.58182 18.5463 6.58182Z" fill="#8F95B2" stroke="#8F95B2" stroke-width="0.2"></path><path d="M14.7402 9.25896L17.2766 6.7226" stroke="#8F95B2" stroke-width="2.2" stroke-miterlimit="10"></path><path d="M6.68164 17.3185L9.1771 14.8231" stroke="#8F95B2" stroke-width="2.2" stroke-miterlimit="10"></path><path d="M9.1771 9.4229L6.68164 6.88654" stroke="#8F95B2" stroke-width="2.2" stroke-miterlimit="10"></path><path d="M17.1146 17.318L14.6191 14.8635" stroke="#8F95B2" stroke-width="2.2" stroke-miterlimit="10"></path></svg>