<svg xmlns="http://www.w3.org/2000/svg" fill="currentColor" viewBox="0 0 72 72" class="icon--decorative" role="presentation">
  <title>Download symbol</title>
  <g class="symbols_download">
    <path fill-rule="evenodd" d="M36 1c1.074 0 1.944.87 1.944 1.944v29.01l8.647-6.917a1.944 1.944 0 1 1 2.43 3.037l-11.806 9.444c-.71.569-1.72.569-2.43 0L22.98 28.074a1.944 1.944 0 1 1 2.43-3.037l8.646 6.917V2.944C34.056 1.871 34.926 1 36 1ZM2.953 45.453A6.667 6.667 0 0 1 7.667 43.5H19.73c.698 0 1.343.374 1.689.98a16.79 16.79 0 0 0 29.162 0c.346-.606.99-.98 1.689-.98h12.063A6.667 6.667 0 0 1 71 50.167v14.166A6.667 6.667 0 0 1 64.333 71H7.667A6.667 6.667 0 0 1 1 64.333V50.167c0-1.768.702-3.464 1.953-4.714Zm4.714 1.936a2.778 2.778 0 0 0-2.778 2.778v14.166a2.778 2.778 0 0 0 2.778 2.778h56.666a2.778 2.778 0 0 0 2.778-2.778V50.167a2.778 2.778 0 0 0-2.778-2.778H53.362a20.68 20.68 0 0 1-34.724 0H7.667Z" class="path-fill fill-path" clip-rule="evenodd"/>
  </g>
</svg>
