<svg xmlns="http://www.w3.org/2000/svg" fill="currentColor" viewBox="0 0 72 72" class="icon--decorative" role="presentation">
  <title>EKG graph in a magnifying glass</title>
    <g class="healthcare_search--ekg">
      <path class="path-fill fill-path" fill-rule="evenodd" d="M4.004 19.337a27.646 27.646 0 0 1 14.79-15.13 27.468 27.468 0 0 1 21.108-.194 27.64 27.64 0 0 1 15.063 14.855 27.818 27.818 0 0 1 .193 21.203 27.719 27.719 0 0 1-4.643 7.67L69.447 66.76a1.904 1.904 0 0 1 0 2.684 1.884 1.884 0 0 1-2.673 0l-18.91-18.997a27.56 27.56 0 0 1-7.495 4.753 27.468 27.468 0 0 1-21.109.195A27.64 27.64 0 0 1 4.197 40.54a27.818 27.818 0 0 1-.193-21.203ZM20.27 7.701A23.857 23.857 0 0 0 7.51 20.758a24.006 24.006 0 0 0 .167 18.297 23.852 23.852 0 0 0 12.998 12.82 23.703 23.703 0 0 0 18.216-.169A23.857 23.857 0 0 0 51.653 38.65a24.006 24.006 0 0 0-.167-18.297 23.852 23.852 0 0 0-12.999-12.82 23.704 23.704 0 0 0-18.216.168Z" clip-rule="evenodd"/>
      <path class="path-fill fill-path" fill-rule="evenodd" d="m23.932 26.928 3.68 10.125a2.738 2.738 0 0 0 5.094.176l3.43-7.718.849 1.7.002.004a2.738 2.738 0 0 0 2.448 1.508H47a2 2 0 1 0 0-4h-6.786l-1.696-3.394a2.738 2.738 0 0 0-4.95.109l-3.257 7.33-3.623-9.966a2.74 2.74 0 0 0-2.417-1.798 2.738 2.738 0 0 0-2.604 1.51l-3.104 6.21H13a2 2 0 1 0 0 4h6.341a2.74 2.74 0 0 0 2.448-1.509l.003-.004 2.14-4.283Zm7.456 8.802-.008-.02.008.02Z" clip-rule="evenodd"/>
  </g>
</svg>