<?xml version="1.0" encoding="UTF-8"?>
<svg version="1.1" xmlns="http://www.w3.org/2000/svg" width="128" height="128">
<path d="M0 0 C0 10.89 0 21.78 0 33 C2.97 33 5.94 33 9 33 C15.52065789 34.57568597 21.28451538 37.57070923 27 41 C27.845625 41.2475 28.69125 41.495 29.5625 41.75 C35.85050085 44.97461582 38.87782171 52.20542232 41.26953125 58.53125 C41.9709702 60.90188859 42.29965874 63.04248057 42.5 65.5 C42.665 66.655 42.83 67.81 43 69 C44.96699195 70.25475348 44.96699195 70.25475348 47 71 C46.5677461 82.17376341 43.87042039 91.10517651 37.171875 100.125 C35.13856769 103.37829169 36.23052808 106.44119236 37 110 C25.31238211 118.97257391 14.47521308 122.67508296 0 124 C0 125.32 0 126.64 0 128 C-13.86337888 128.98244417 -26.98237981 123.9749003 -37.6875 115.125 C-38.450625 114.42375 -39.21375 113.7225 -40 113 C-40.33 113.33 -40.66 113.66 -41 114 C-43.34765625 114.32421875 -43.34765625 114.32421875 -46 114 C-55.21312024 105.18485472 -61.30232841 89.03096703 -62.17578125 76.47265625 C-62.1854041 74.6475221 -62.10512286 72.82212965 -62 71 C-63.65 70.67 -65.3 70.34 -67 70 C-66.46456327 55.14163081 -62.44304181 41.16995603 -52.625 29.8125 C-49.86730211 26.67999147 -49.86730211 26.67999147 -48.7109375 22.81640625 C-48.96724318 20.68218452 -48.96724318 20.68218452 -50 18 C-34.33672072 5.85170859 -20.04290553 0 0 0 Z " fill="#FBCA54" transform="translate(74,0)"/>
<path d="M0 0 C-0.4322539 11.17376341 -3.12957961 20.10517651 -9.828125 29.125 C-11.86143231 32.37829169 -10.76947192 35.44119236 -10 39 C-21.68761789 47.97257391 -32.52478692 51.67508296 -47 53 C-47 54.32 -47 55.64 -47 57 C-59.26313451 57.86904103 -70.98957549 54.22637028 -81 47 C-83.11153323 44.75314406 -85.07744422 42.40961982 -87 40 C-86.32795532 39.33581055 -86.32795532 39.33581055 -85.64233398 38.65820312 C-83.57129904 36.60823317 -81.50439303 34.55414567 -79.4375 32.5 C-78.73302734 31.80390625 -78.02855469 31.1078125 -77.30273438 30.390625 C-71.44566625 24.56054797 -65.68984094 18.80912496 -61.328125 11.75390625 C-57.28400822 5.9025684 -52.95241675 1.04002984 -45.6975708 -0.48352051 C-31.51830757 -2.43762838 -14.01155792 -3.45336449 0 0 Z " fill="#25A2D9" transform="translate(121,71)"/>
<path d="M0 0 C6.3366216 5.21478541 12.055816 10.97280116 17.8125 16.8125 C19.69114744 18.71773656 21.57305969 20.61953725 23.45703125 22.51953125 C24.28178955 23.35589111 25.10654785 24.19225098 25.95629883 25.05395508 C27.84921038 27.0466549 27.84921038 27.0466549 30 28 C30 28.66 30 29.32 30 30 C30.88993652 30.40206665 30.88993652 30.40206665 31.79785156 30.81225586 C34.01738202 32.00937511 35.46592176 33.22157745 37.234375 35.00390625 C37.80800781 35.57947266 38.38164063 36.15503906 38.97265625 36.74804688 C39.85244141 37.64620117 39.85244141 37.64620117 40.75 38.5625 C41.35199219 39.16513672 41.95398438 39.76777344 42.57421875 40.38867188 C47 44.85961416 47 44.85961416 47 46 C38.54241822 46.15359878 30.08476662 46.30178042 21.62696934 46.4429636 C17.70007172 46.50868604 13.7732255 46.57630471 9.84643555 46.64819336 C6.05992533 46.71744515 2.27336119 46.7817991 -1.51329231 46.84269524 C-2.96107084 46.86685111 -4.40882056 46.8927997 -5.85653496 46.92053413 C-7.87749893 46.95895022 -9.89858968 46.99051574 -11.91967773 47.02172852 C-13.64842384 47.05170677 -13.64842384 47.05170677 -15.41209412 47.08229065 C-18 47 -18 47 -19 46 C-19.1490339 28.71206796 -12.08346462 13.81849296 -1 1 C-0.67 0.67 -0.34 0.34 0 0 Z " fill="#FAAA46" transform="translate(26,24)"/>
<path d="M0 0 C20.13 0 40.26 0 61 0 C54.26175366 7.8612874 54.26175366 7.8612874 51.37890625 10.68359375 C50.75717529 11.2969458 50.13544434 11.91029785 49.49487305 12.54223633 C48.85718994 13.16767334 48.21950684 13.79311035 47.5625 14.4375 C43.09426338 18.85821943 38.73874812 23.28289286 34.6875 28.09375 C31.67568145 31.49598947 28.38793921 34.62922316 25.13671875 37.80078125 C22.8647287 40.00578065 22.8647287 40.00578065 21 43 C18.58984375 43.44921875 18.58984375 43.44921875 16 43 C7.19900812 34.57918055 1.78545702 19.82473729 0 8 C0 5.36 0 2.72 0 0 Z " fill="#A8DB62" transform="translate(12,71)"/>
<path d="M0 0 C10.9020372 0 17.85225953 2.51135572 27 8 C27.845625 8.2475 28.69125 8.495 29.5625 8.75 C35.80073025 11.94909243 38.90889367 19.15945962 41.25 25.4609375 C42.39710738 29.34437393 42.80737588 32.9548934 43 37 C42 38 42 38 38.03100586 38.11352539 C36.25894393 38.1133662 34.4868774 38.10766785 32.71484375 38.09765625 C31.78402481 38.0962413 30.85320587 38.09482635 29.8941803 38.09336853 C26.90858809 38.08775172 23.92306971 38.0751964 20.9375 38.0625 C18.91862087 38.05748716 16.89974057 38.05292388 14.88085938 38.04882812 C9.92052129 38.03862587 4.9603437 38.01905382 0 38 C0 25.46 0 12.92 0 0 Z " fill="#F3546D" transform="translate(74,33)"/>
<path d="M0 0 C0 18.81 0 37.62 0 57 C-12.76402476 57 -23.49247559 54.58521899 -34 47 C-36.11153323 44.75314406 -38.07744422 42.40961982 -40 40 C-39.32795532 39.33581055 -39.32795532 39.33581055 -38.64233398 38.65820312 C-36.57129904 36.60823317 -34.50439303 34.55414567 -32.4375 32.5 C-31.38079102 31.45585938 -31.38079102 31.45585938 -30.30273438 30.390625 C-26.2901944 26.39657599 -22.48261073 22.30600684 -18.78833008 18.01757812 C-15.55070115 14.3649139 -12.08479201 10.94067714 -8.625 7.5 C-7.90183594 6.77296875 -7.17867187 6.0459375 -6.43359375 5.296875 C-5.74652344 4.61109375 -5.05945313 3.9253125 -4.3515625 3.21875 C-3.42077881 2.2896582 -3.42077881 2.2896582 -2.47119141 1.34179688 C-1 0 -1 0 0 0 Z " fill="#37CBA0" transform="translate(74,71)"/>
<path d="M0 0 C-0.45123363 11.66438934 -3.47831123 21.87368429 -11 31 C-11.99 31.66 -12.98 32.32 -14 33 C-18.56076463 28.46449785 -23.11767715 23.92515256 -27.671875 19.38305664 C-29.22306342 17.83691089 -30.77514624 16.29166194 -32.328125 14.74731445 C-34.55441781 12.5330902 -36.77752107 10.31570774 -39 8.09765625 C-39.69996094 7.4028566 -40.39992188 6.70805695 -41.12109375 5.99220276 C-41.76175781 5.35161423 -42.40242188 4.7110257 -43.0625 4.05102539 C-43.91521484 3.20164146 -43.91521484 3.20164146 -44.78515625 2.33509827 C-46 1 -46 1 -46 0 C-40.25270302 -0.16795162 -34.5052641 -0.32847542 -28.75756836 -0.48217773 C-26.80308477 -0.53548331 -24.84865503 -0.59080332 -22.89428711 -0.64819336 C-20.08198656 -0.73042437 -17.26957076 -0.80536299 -14.45703125 -0.87890625 C-13.58601273 -0.90594131 -12.7149942 -0.93297638 -11.81758118 -0.96083069 C-7.72190332 -1.06114829 -3.9970321 -1.06277398 0 0 Z " fill="#336D92" transform="translate(121,71)"/>
<path d="M0 0 C11.28810747 0 18.84206197 2.59731553 28 9 C26.3344484 13.33254244 23.12569252 16.13556192 19.875 19.3125 C19.29041016 19.88991943 18.70582031 20.46733887 18.10351562 21.06225586 C12.32721502 26.7308492 6.31973607 31.94421114 0 37 C0 24.79 0 12.58 0 0 Z " fill="#F086C7" transform="translate(74,33)"/>
</svg>
