<?xml version="1.0" encoding="UTF-8"?>
<svg version="1.1" xmlns="http://www.w3.org/2000/svg" width="44" height="44">
<path d="M0 0 C0.26917678 5.5253261 -0.59068089 9.82772453 -2.3359375 15.05078125 C-2.57535065 15.7907988 -2.81476379 16.53081635 -3.06143188 17.29325867 C-3.56600309 18.8453005 -4.0755531 20.39573177 -4.58984375 21.94458008 C-5.37720495 24.3191498 -6.14673691 26.69896783 -6.9140625 29.08007812 C-7.4078171 30.59148502 -7.90257355 32.10256508 -8.3984375 33.61328125 C-8.6287265 34.32470779 -8.8590155 35.03613434 -9.09628296 35.76911926 C-10.76849253 40.76849253 -10.76849253 40.76849253 -13 43 C-15.9375 43.4375 -15.9375 43.4375 -19 43 C-21.77989522 39.31629649 -22.73931951 35.65749375 -23.6875 31.1875 C-23.93886719 30.02605469 -24.19023437 28.86460938 -24.44921875 27.66796875 C-24.63097656 26.78753906 -24.81273438 25.90710938 -25 25 C-26.12019531 24.74605469 -27.24039062 24.49210937 -28.39453125 24.23046875 C-29.86732093 23.88337819 -31.33997001 23.53569067 -32.8125 23.1875 C-33.55048828 23.02185547 -34.28847656 22.85621094 -35.04882812 22.68554688 C-42.03956844 21.00903449 -42.03956844 21.00903449 -44 18 C-44.3125 15.0625 -44.3125 15.0625 -43 12 C-41.1875 10.99511719 -41.1875 10.99511719 -38.8125 10.109375 C-37.90991455 9.77172119 -37.0073291 9.43406738 -36.07739258 9.08618164 C-30.30283698 7.04802235 -24.51028269 5.08364476 -18.6875 3.1875 C-17.43904297 2.76791016 -16.19058594 2.34832031 -14.90429688 1.91601562 C-13.70224609 1.52478516 -12.50019531 1.13355469 -11.26171875 0.73046875 C-9.63689575 0.19522583 -9.63689575 0.19522583 -7.97924805 -0.35083008 C-4.88633994 -1.02476621 -3.01270771 -0.86889602 0 0 Z M-19.76171875 8.65234375 C-20.87998047 9.01650391 -21.99824219 9.38066406 -23.15039062 9.75585938 C-24.90125977 10.34077148 -24.90125977 10.34077148 -26.6875 10.9375 C-27.86634766 11.32357422 -29.04519531 11.70964844 -30.25976562 12.10742188 C-33.17587944 13.06371831 -36.08902384 14.02819883 -39 15 C-35.58541436 18.41458564 -31.47401325 19.18993616 -26.84375 20.19921875 C-21.62074559 19.92851425 -19.58269383 17.91270958 -16.125 14.1875 C-14.33509936 12.17128368 -12.66137978 10.12693126 -11 8 C-14.73479387 6.75506871 -16.06330518 7.43205501 -19.76171875 8.65234375 Z M-8 11 C-16.23726832 17.25540836 -16.23726832 17.25540836 -20.38671875 26.10546875 C-19.83179768 28.90272396 -19.0643338 31.35871449 -18 34 C-17.64769257 35.32844585 -17.30700116 36.66035856 -17 38 C-16.34 38 -15.68 38 -15 38 C-13.6338479 33.87887083 -12.28412363 29.75254756 -10.9375 25.625 C-10.54755859 24.449375 -10.15761719 23.27375 -9.75585938 22.0625 C-9.39169922 20.94101562 -9.02753906 19.81953125 -8.65234375 18.6640625 C-8.31195068 17.62717285 -7.97155762 16.5902832 -7.62084961 15.52197266 C-6.71732632 13.02530383 -6.71732632 13.02530383 -8 11 Z " fill="#000D25" transform="translate(44,1)"/>
</svg>
