<?xml version="1.0" encoding="UTF-8"?>
<svg version="1.1" xmlns="http://www.w3.org/2000/svg" width="1200" height="1200">
<path d="M0 0 C1.00459064 -0.00367669 2.00918129 -0.00735338 3.04421407 -0.01114148 C6.40304188 -0.02213474 9.7618387 -0.02601482 13.12068176 -0.02983093 C15.53258359 -0.0360991 17.94448446 -0.04274621 20.35638428 -0.04974365 C27.58981383 -0.06893789 34.82324078 -0.07956895 42.05668804 -0.08847144 C45.47254953 -0.09286508 48.8884095 -0.09822922 52.30426979 -0.10346031 C63.67684068 -0.12046997 75.04941065 -0.13495943 86.4219923 -0.14220905 C89.36940703 -0.14411861 92.31682175 -0.14603899 95.26423645 -0.147995 C96.36293807 -0.14872061 96.36293807 -0.14872061 97.48383567 -0.14946087 C109.32307096 -0.15774361 121.16220464 -0.18305186 133.00139567 -0.21557567 C145.18776957 -0.24877701 157.37409209 -0.26666971 169.56051141 -0.26985329 C176.38991464 -0.27200678 183.21916987 -0.28058277 190.04852867 -0.30631447 C196.48446466 -0.32975165 202.92013614 -0.33376589 209.3561039 -0.32355309 C211.70366424 -0.32306133 214.05123831 -0.3292739 216.39875793 -0.34310913 C251.57600481 -0.538635 281.9874279 8.99547807 307.69026184 33.58467102 C327.70887599 54.49300135 339.11083859 81.30993714 338.97541809 110.20576477 C338.97400314 111.35005447 338.9725882 112.49434418 338.97113037 113.67330933 C338.96555485 117.31045703 338.95300682 120.94754207 338.94026184 124.58467102 C338.93524368 127.05797742 338.93068132 129.53128479 338.92658997 132.0045929 C338.91559344 138.05214014 338.89887972 144.0996511 338.87776184 150.14717102 C339.83580904 150.14546228 339.83580904 150.14546228 340.81321073 150.14371902 C378.69159031 150.07654325 416.56996107 150.02509035 454.44838805 149.99397503 C458.99939035 149.99022304 463.55039253 149.98634006 468.10139465 149.9823761 C469.00739382 149.98158917 469.91339298 149.98080224 470.84684667 149.97999146 C485.50484068 149.96694768 500.16279929 149.9432995 514.82077232 149.91571263 C529.86807318 149.88762982 544.91535554 149.87098868 559.96268153 149.86490554 C569.24309074 149.86079506 578.52339987 149.84782575 587.80377826 149.82342162 C594.17298384 149.80752892 600.54213789 149.80277865 606.91136184 149.80666689 C610.58270012 149.80858295 614.25386388 149.80570491 617.9251709 149.7895546 C621.91479071 149.77213316 625.90404256 149.77823702 629.89369202 149.78640747 C631.0415862 149.77766895 632.18948039 149.76893042 633.37215924 149.75992709 C645.87333206 149.82888556 656.70575714 152.14592834 665.84651184 161.06904602 C674.04152712 170.0280034 677.38334284 178.99279495 677.12385559 191.12763977 C676.24772788 201.8775877 671.33148465 210.09621865 663.62776184 217.45967102 C655.08366928 224.69261278 645.60317019 226.31344868 634.66926575 226.26069641 C633.8685968 226.26084244 633.06792786 226.26098846 632.24299622 226.26113892 C629.61341075 226.26044582 626.98389734 226.25268178 624.35432434 226.24482727 C622.52443989 226.24296095 620.69455493 226.24153806 618.8646698 226.24053955 C614.06099556 226.23673125 609.25735181 226.22691542 604.45368958 226.21583557 C599.54687411 226.20558513 594.64005369 226.20103416 589.73323059 226.19599915 C580.11472765 226.18529158 570.49624729 226.16823549 560.87776184 226.14717102 C560.89528164 227.10347177 560.89528164 227.10347177 560.91315537 228.07909174 C560.98963036 235.64879891 560.51116922 243.09971747 559.87101269 250.63920403 C559.76068359 251.97757707 559.65075189 253.31598292 559.54117784 254.65441799 C559.23995318 258.31975434 558.93311121 261.98460158 558.62531746 265.64939133 C558.29104674 269.64146448 557.96205383 273.63397319 557.63237602 277.62642777 C557.05415644 284.6198711 556.47255982 291.61302719 555.88873482 298.60600471 C555.02052483 309.0053942 554.1575063 319.40520999 553.29548905 329.80511439 C551.66594013 349.4626431 550.03025753 369.11965851 548.39271601 388.7765228 C547.12787629 403.95997564 545.86471742 419.14356748 544.60274696 434.32725906 C544.42140152 436.50908087 544.24005575 438.69090264 544.05870965 440.87272439 C543.78543234 444.16061918 543.51215629 447.44851408 543.23888439 450.73640932 C540.69786835 481.30842251 538.15502894 511.88028362 535.60835552 542.4518261 C535.46434013 544.18066324 535.46434013 544.18066324 535.31741534 545.9444264 C534.53774722 555.30384824 533.75803084 564.66326606 532.97831068 574.02268357 C529.93858687 610.51067905 526.90454343 646.99914288 523.87507629 683.48799133 C520.47058579 724.4937114 517.06196567 765.49908511 513.64716941 806.50394833 C513.28284287 810.87893971 512.91852952 815.25393219 512.55422401 819.62892532 C512.4645215 820.70613846 512.37481899 821.7833516 512.28239822 822.89320756 C510.92982072 839.13693087 509.58044449 855.38091808 508.232687 871.62504196 C506.69905223 890.10939842 505.16103144 908.593384 503.61722954 927.07689421 C502.75410334 937.41240024 501.89437647 947.74817546 501.03962963 958.08437791 C500.46733628 965.00072234 499.89047045 971.91667586 499.3099865 978.83233764 C498.98003389 982.76476605 498.65196054 986.6973241 498.32947501 990.63037251 C496.1330365 1017.38865987 496.1330365 1017.38865987 494.33770466 1030.13395882 C494.16691817 1031.34818907 494.16691817 1031.34818907 493.99268145 1032.58694922 C489.71006554 1060.97244035 473.17715699 1086.02402499 451.03010559 1103.83857727 C431.204114 1118.35798375 407.78138594 1126.32858875 383.22916603 1126.27859879 C382.2832155 1126.28065142 381.33726496 1126.28270405 380.36264926 1126.28481889 C377.19275703 1126.29047351 374.02290846 1126.28903353 370.85301208 1126.28761292 C368.557297 1126.29019744 366.26158237 1126.29321084 363.96586835 1126.29661632 C357.65661377 1126.30467944 351.34737057 1126.30647551 345.03811145 1126.30721378 C338.93235278 1126.30839229 332.82659894 1126.3151943 326.72084362 1126.3212922 C310.36565616 1126.33733677 294.01046965 1126.34325393 277.65527574 1126.34804094 C269.91392798 1126.35037866 262.17258096 1126.35398152 254.43123378 1126.35773632 C227.9177677 1126.37057109 201.40430202 1126.38128984 174.8908329 1126.38473892 C173.22707735 1126.38496055 171.5633218 1126.38518234 169.89956626 1126.38540427 C168.2318512 1126.38562491 166.56413614 1126.38584539 164.89642107 1126.38606572 C161.55084586 1126.38650827 158.20527065 1126.38695538 154.85969543 1126.3874054 C154.03018997 1126.38751479 153.2006845 1126.38762418 152.3460425 1126.38773688 C125.46130082 1126.39136591 98.57658614 1126.40728052 71.69185479 1126.43059576 C43.25002873 1126.45521613 14.80821808 1126.46891281 -13.63361895 1126.47010684 C-16.75854469 1126.47027829 -19.88347042 1126.47049371 -23.00839615 1126.47074127 C-23.7778085 1126.47079704 -24.54722085 1126.47085281 -25.33994873 1126.47091027 C-37.69902786 1126.47205885 -50.05807921 1126.48306454 -62.41714897 1126.49762833 C-74.8507966 1126.51202611 -87.28440877 1126.51521185 -99.71806245 1126.50718835 C-106.44832023 1126.50313675 -113.17847358 1126.50418291 -119.90872574 1126.5182457 C-126.07871273 1126.53101955 -132.24853698 1126.52975643 -138.41852386 1126.51765499 C-140.64201041 1126.51570402 -142.86550863 1126.5187484 -145.08897881 1126.52749935 C-175.01014001 1126.63773601 -204.23540284 1120.9049984 -227.12223816 1100.14717102 C-227.9356366 1099.46267883 -228.74903503 1098.77818665 -229.58708191 1098.07295227 C-263.39890982 1069.05417238 -267.1751993 1029.6663212 -270.63781901 987.88427915 C-270.96974936 983.88684984 -271.30505652 979.88970346 -271.63991296 975.8925184 C-272.22519361 968.90046914 -272.80833853 961.90824436 -273.39005089 954.91589737 C-274.25507676 944.51808804 -275.12341756 934.12055736 -275.99237959 923.72307634 C-277.63448146 904.07315698 -279.27267044 884.4229126 -280.9096296 864.77256425 C-282.1734366 849.60183778 -283.43826927 834.43119714 -284.70382309 819.2606163 C-284.88577048 817.07950271 -285.06771745 814.89838909 -285.249664 812.71727543 C-285.52384907 809.43044575 -285.79803433 806.14361609 -286.07222161 802.85678659 C-288.62021895 772.31224544 -291.16702048 741.76760477 -293.71134377 711.22275734 C-293.80719765 710.07202601 -293.90305154 708.92129468 -294.00181008 707.73569271 C-294.48761306 701.90355665 -294.97340477 696.07141967 -295.45919223 690.23928232 C-295.60390683 688.50190734 -295.60390683 688.50190734 -295.75154495 686.72943387 C-295.94664302 684.38717671 -296.1417405 682.04491951 -296.33683741 679.70266226 C-299.37457022 643.23317322 -302.41627932 606.76401773 -305.46110535 570.29512024 C-308.88305654 529.3091901 -312.30197315 488.32300844 -315.71643674 447.3364538 C-316.08037683 442.96791214 -316.44432745 438.59937136 -316.80828476 434.23083115 C-316.94270243 432.61739332 -316.94270243 432.61739332 -317.07983561 430.9713608 C-318.43310963 414.72854461 -319.78876719 398.48592847 -321.1456337 382.24341202 C-322.68804792 363.77974233 -324.22729635 345.3158119 -325.76230098 326.85152467 C-326.62148017 316.51776393 -327.48317754 306.18422044 -328.34848941 295.85097138 C-328.92614732 288.94975771 -329.50049845 282.048274 -330.07215727 275.14656082 C-330.39798895 271.21388107 -330.72525115 267.28133498 -331.0565321 263.3491102 C-331.35816016 259.76850399 -331.65555929 256.187572 -331.94965984 252.60633988 C-332.10573283 250.71896128 -332.26624823 248.83195162 -332.42697072 246.94496328 C-332.99274891 239.99373227 -333.25034613 233.1210346 -333.12223816 226.14717102 C-334.12289307 226.15383286 -335.12354797 226.16049469 -336.15452576 226.1673584 C-345.62794944 226.22842098 -355.1013327 226.27326367 -364.57490921 226.30260754 C-369.4442852 226.31820113 -374.31350113 226.33932293 -379.18278503 226.37348938 C-383.89013471 226.40630936 -388.59733133 226.42407135 -393.30478668 226.43180275 C-395.09235286 226.43730591 -396.87991156 226.44805115 -398.6674118 226.46436119 C-413.45386121 226.59379956 -426.90751493 226.14249608 -438.09098816 215.22529602 C-446.28600344 206.26633864 -449.62781916 197.3015471 -449.36833191 185.16670227 C-448.4922042 174.41675434 -443.57596097 166.19812339 -435.87223816 158.83467102 C-428.25466607 152.38606867 -419.51194099 150.02005243 -409.63627052 150.02412319 C-408.56537198 150.02213214 -407.49447343 150.02014109 -406.39112341 150.01808971 C-405.22575218 150.02100255 -404.06038095 150.02391539 -402.85969543 150.0269165 C-401.61316897 150.02606208 -400.3666425 150.02520765 -399.08234251 150.02432734 C-395.62979895 150.02296623 -392.17731223 150.02608691 -388.72477555 150.0311054 C-384.99887485 150.03542727 -381.27297587 150.03396224 -377.54707336 150.03320312 C-371.09414378 150.03267899 -364.64122431 150.03581425 -358.18829727 150.04144096 C-348.85846936 150.04957093 -339.52864634 150.05217272 -330.19881527 150.05342896 C-315.06147039 150.05561712 -299.9241309 150.06227082 -284.78678894 150.07173157 C-270.08301317 150.08091177 -255.37923887 150.08798963 -240.67546082 150.09223938 C-239.31575534 150.09263347 -239.31575534 150.09263347 -237.92858107 150.09303551 C-233.38104723 150.09434056 -228.83351337 150.09560426 -224.28597951 150.09684741 C-186.56472859 150.10721269 -148.84348379 150.12482461 -111.12223816 150.14717102 C-111.12889999 149.52902023 -111.13556183 148.91086945 -111.14242554 148.27398682 C-111.2094405 141.76749439 -111.25430952 135.26110195 -111.28703308 128.75434875 C-111.30200389 126.33471181 -111.32238775 123.91510144 -111.34855652 121.49555969 C-111.5215771 105.07217424 -111.11573832 90.08456617 -105.37223816 74.52217102 C-105.11619812 73.8168927 -104.86015808 73.11161438 -104.59635925 72.38496399 C-93.26834493 42.183754 -69.92498919 21.00041173 -41.18473816 7.83467102 C-28.09220623 2.42949729 -14.11578609 -0.00279553 0 0 Z M-28.62223816 91.08857727 C-40.75093982 107.73395689 -36.12223816 131.38616281 -36.12223816 150.14717102 C62.87776184 150.14717102 161.87776184 150.14717102 263.87776184 150.14717102 C266.23403935 115.81938932 266.23403935 115.81938932 252.75276184 86.33467102 C243.95232945 78.18248477 233.8985907 75.99560507 222.38430786 76.00672913 C221.42337304 76.003758 220.46243822 76.00078688 219.47238415 75.99772573 C216.24983522 75.98904858 213.02732348 75.9875313 209.80476379 75.98603821 C207.49515707 75.98140933 205.18555111 75.97638457 202.87594604 75.97099304 C196.59891166 75.95787349 190.32188796 75.9514249 184.044842 75.94698238 C180.12249562 75.94405084 176.20015215 75.93994587 172.27780724 75.93547821 C161.40970244 75.92337061 150.54160087 75.91298823 139.67348957 75.90960312 C138.63074203 75.90927377 138.63074203 75.90927377 137.56692887 75.90893777 C136.52173993 75.90861035 136.52173993 75.90861035 135.45543605 75.90827632 C134.04355832 75.90783286 132.63168059 75.9073863 131.21980286 75.90693665 C130.51946838 75.90671522 129.81913391 75.90649379 129.09757718 75.90626565 C117.75586705 75.90231968 106.41422126 75.88487082 95.07253597 75.86157712 C83.41737783 75.83783362 71.7622551 75.82565761 60.10707253 75.8242352 C53.56750191 75.82318757 47.02802203 75.81728851 40.48847389 75.79941559 C34.33497185 75.78292495 28.18162869 75.78078435 22.02811241 75.7895546 C19.77311146 75.79032444 17.51810194 75.78598923 15.26312256 75.77609634 C12.17727164 75.76335532 9.09198158 75.76926565 6.00613403 75.77967834 C5.12040925 75.77162194 4.23468446 75.76356554 3.32211953 75.755265 C-9.78556416 75.85822928 -20.32887344 80.93304501 -28.62223816 91.08857727 Z M-257.12223816 226.14717102 C-256.28320508 243.93594826 -256.28320508 243.93594826 -255.00526524 261.67897224 C-254.89524489 263.00815628 -254.78554995 264.33736729 -254.67614231 265.6666019 C-254.37948113 269.25965408 -254.07830173 272.85231419 -253.77626543 276.44491797 C-253.44661891 280.3759865 -253.12134644 284.30741756 -252.79547971 288.23880088 C-252.22540589 295.10920125 -251.65259385 301.97936891 -251.07792282 308.84938622 C-250.22338108 319.06524026 -249.37312904 329.28144827 -248.52367251 339.49772626 C-246.91812889 358.80541803 -245.30756778 378.11268924 -243.69544394 397.41983254 C-242.45093086 412.3247423 -241.20778181 427.22976527 -239.96558952 442.13486862 C-239.78689273 444.2789907 -239.60819558 446.42311276 -239.42949806 448.56723478 C-239.16020303 451.79841796 -238.89090875 455.02960121 -238.62161761 458.26078471 C-236.11982071 488.27907583 -233.61651591 518.2972409 -231.11003971 548.31514168 C-231.01565311 549.44553176 -230.9212665 550.57592184 -230.8240197 551.74056617 C-230.05759048 560.91935356 -229.29112332 570.09813777 -228.52465281 579.27692171 C-225.53257642 615.10862245 -222.5453377 650.94072361 -219.56193542 686.77314758 C-216.20805555 727.05511088 -212.85061136 767.33677477 -209.48785394 807.617998 C-209.12945989 811.91120817 -208.77107762 816.20441932 -208.41270256 820.49763107 C-208.32446228 821.55468933 -208.23622199 822.61174759 -208.14530776 823.70083791 C-206.8131027 839.66061131 -205.4836848 855.62061532 -204.15567207 871.58073807 C-202.6462434 889.72106284 -201.13306217 907.86107008 -199.61486108 926.00066288 C-198.7653746 936.15173465 -197.91885824 946.3030438 -197.07660712 956.45471851 C-196.51377584 963.2349287 -195.94704016 970.01480521 -195.37712639 976.79442373 C-195.05252217 980.6571837 -194.7296067 984.52006413 -194.41143454 988.38335969 C-194.06845718 992.54733532 -193.71715447 996.71056725 -193.36505222 1000.8737812 C-193.26791399 1002.06941421 -193.17077576 1003.26504722 -193.07069394 1004.49691153 C-191.86697277 1018.52826126 -190.11030821 1031.51787622 -179.24723816 1041.58076477 C-170.25853898 1048.20662574 -161.84805026 1050.30088443 -150.97661304 1050.27859879 C-150.04861101 1050.28065142 -149.12060897 1050.28270405 -148.16448566 1050.28481889 C-145.0376631 1050.29049821 -141.91088445 1050.28903048 -138.78405762 1050.28761292 C-136.52647815 1050.29019601 -134.26889914 1050.29320902 -132.01132077 1050.29661632 C-125.79385893 1050.30469603 -119.57640862 1050.30647643 -113.35894215 1050.30721378 C-107.34641086 1050.30887288 -101.33388552 1050.31518974 -95.32135754 1050.3212922 C-79.21227663 1050.33735197 -63.10319668 1050.34325537 -46.99410921 1050.34804094 C-39.3737072 1050.35037683 -31.75330595 1050.35397946 -24.13290453 1050.35773632 C1.95182266 1050.37057157 28.03654944 1050.38129097 54.12127972 1050.38473892 C55.7587138 1050.38496055 57.39614788 1050.38518234 59.03358196 1050.38540427 C60.67497227 1050.38562491 62.31636258 1050.3858454 63.95775288 1050.38606572 C67.25066928 1050.38650827 70.54358568 1050.38695539 73.83650208 1050.3874054 C75.06117974 1050.38756948 75.06117974 1050.38756948 76.31059836 1050.38773688 C102.78628951 1050.39136782 129.26195328 1050.40728937 155.73763394 1050.43059576 C183.72848052 1050.4551909 211.71931144 1050.46891161 239.71016914 1050.47010684 C242.78276019 1050.47027829 245.85535123 1050.47049372 248.92794228 1050.47074127 C250.06278187 1050.47082492 250.06278187 1050.47082492 251.22054752 1050.47091027 C263.39633483 1050.47206096 275.57209405 1050.48308449 287.74787187 1050.49762833 C299.9857111 1050.51199355 312.2235143 1050.51523016 324.46135964 1050.50718835 C331.09135746 1050.50312449 337.72128081 1050.50423944 344.35127258 1050.5182457 C350.4204221 1050.53095004 356.48940569 1050.52981748 362.55855487 1050.51765499 C364.7543981 1050.51569199 366.95025296 1050.51880412 369.14607986 1050.52749935 C372.13189812 1050.53857446 375.11712898 1050.53111504 378.10293102 1050.51910782 C378.95441295 1050.52670301 379.80589488 1050.53429821 380.68317929 1050.54212356 C391.64429665 1050.44703662 400.91277725 1046.84101995 408.85432434 1039.26045227 C419.18227 1028.07550686 419.94848414 1015.29922701 421.13898659 1000.65285301 C421.25171545 999.31418935 421.36491502 997.97556526 421.47853804 996.6369772 C421.78828025 992.97184603 422.09137189 989.30619129 422.39334269 985.64041279 C422.72347323 981.64734302 423.05985867 977.65479933 423.39543664 973.66218436 C423.98234964 966.66894435 424.56527609 959.67538098 425.14557457 952.68158913 C426.00850636 942.2816445 426.8775944 931.88222071 427.74790327 921.48289116 C429.30206525 902.90977809 430.85013031 884.33616065 432.39566626 865.76232801 C433.74810082 849.50943586 435.10266995 833.25672331 436.45934677 817.00418472 C436.54932183 815.92628284 436.63929689 814.84838096 436.73199847 813.73781538 C437.09723473 809.362328 437.46248205 804.98684154 437.8277453 800.61135642 C441.25424382 759.5650756 444.67474154 718.5182967 448.09236109 677.47127575 C451.12936336 640.99600931 454.17095241 604.52112823 457.21662903 568.04658508 C457.99661614 558.70551876 458.77660024 549.36445218 459.55654335 540.02338219 C459.70057003 538.29843651 459.70057003 538.29843651 459.84750635 536.53864344 C462.3917053 506.06707727 464.93239121 475.59521821 467.47196043 445.12326586 C467.74517922 441.84498789 468.01839875 438.56670998 468.29161968 435.28843219 C468.47286895 433.11367987 468.65411549 430.93892731 468.83535929 428.76417453 C470.09949061 413.59615614 471.36499709 398.42825303 472.63144367 383.26042779 C474.26327602 363.71646122 475.89269661 344.17229616 477.51782466 324.62777089 C478.37754727 314.289223 479.2393107 303.95085006 480.1040131 293.61271745 C480.68111283 286.71057613 481.25550627 279.80821308 481.82768095 272.90566174 C482.153932 268.97076889 482.48135891 265.03598362 482.81205578 261.10146169 C483.11296607 257.52102435 483.4104359 253.94031827 483.70518352 250.35936849 C483.86180551 248.46728968 484.02207226 246.57551365 484.1824944 244.68375325 C484.3214839 242.98269451 484.3214839 242.98269451 484.46328127 241.24727094 C484.54394372 240.27906465 484.62460616 239.31085837 484.70771293 238.31331249 C484.92522937 234.26337293 484.87776184 230.20294763 484.87776184 226.14717102 C240.01776184 226.14717102 -4.84223816 226.14717102 -257.12223816 226.14717102 Z " fill="#F12D45" transform="translate(486.1222381591797,36.85282897949219)"/>
<path d="M0 0 C8.71146362 7.16275898 14.83944112 15.5317482 16.27009511 26.97151184 C16.45477136 31.1749527 16.48031687 35.35063002 16.44741821 39.55664062 C16.45318916 41.17537561 16.46113679 42.79410402 16.47105443 44.41281891 C16.4918175 48.83213707 16.48166097 53.25091143 16.46612334 57.67023087 C16.45477033 62.44742664 16.47229208 67.22453151 16.48602295 72.00170898 C16.50821782 81.34880217 16.50347089 90.69569423 16.48895974 100.04279518 C16.47765273 107.64158397 16.47614293 115.24031653 16.48157883 122.83911133 C16.48234499 123.92196238 16.48311116 125.00481343 16.48390054 126.12047815 C16.48549922 128.32049499 16.48712029 130.5205118 16.4887635 132.7205286 C16.50301001 153.33421162 16.48664547 173.94778333 16.45976166 194.5614481 C16.43742391 212.23633362 16.44130434 229.91105494 16.46435547 247.5859375 C16.49113284 268.12750704 16.50163682 288.6689791 16.48629415 309.21056366 C16.48470146 311.40233865 16.48312961 313.59411365 16.48157883 315.78588867 C16.48080745 316.8641915 16.48003607 317.94249433 16.47924132 319.053473 C16.47493014 326.6402461 16.48219833 334.2269572 16.49397659 341.8137207 C16.50802163 351.06362589 16.50415948 360.31331901 16.47757287 369.5632 C16.46446171 374.27970928 16.45923615 378.99586541 16.47581863 383.71237183 C16.49078732 388.03535534 16.48241683 392.35766048 16.45593087 396.680583 C16.45037508 398.23896717 16.45312071 399.7974094 16.46530981 401.35575581 C16.56179922 414.72380667 13.86129208 425.27791546 4.421875 435.11328125 C-5.68071429 443.62788869 -16.44275571 445.24286633 -29.1875 444.3125 C-39.97432134 441.7859751 -47.6296651 436.12221748 -54.1875 427.3125 C-59.41979414 418.17652188 -59.90258907 409.31800284 -59.82241821 399.06835938 C-59.82818916 397.44962439 -59.83613679 395.83089598 -59.84605443 394.21218109 C-59.8668175 389.79286293 -59.85666097 385.37408857 -59.84112334 380.95476913 C-59.82977033 376.17757336 -59.84729208 371.40046849 -59.86102295 366.62329102 C-59.88321782 357.27619783 -59.87847089 347.92930577 -59.86395974 338.58220482 C-59.85265273 330.98341603 -59.85114293 323.38468347 -59.85657883 315.78588867 C-59.85734499 314.70303762 -59.85811116 313.62018657 -59.85890054 312.50452185 C-59.86049922 310.30450501 -59.86212029 308.1044882 -59.8637635 305.9044714 C-59.87801001 285.29078838 -59.86164547 264.67721667 -59.83476166 244.0635519 C-59.81242391 226.38866638 -59.81630434 208.71394506 -59.83935547 191.0390625 C-59.86613284 170.49749296 -59.87663682 149.9560209 -59.86129415 129.41443634 C-59.85970146 127.22266135 -59.85812961 125.03088635 -59.85657883 122.83911133 C-59.85580745 121.7608085 -59.85503607 120.68250567 -59.85424132 119.571527 C-59.84993014 111.9847539 -59.85719833 104.3980428 -59.86897659 96.8112793 C-59.88302163 87.56137411 -59.87915948 78.31168099 -59.85257287 69.0618 C-59.83946171 64.34529072 -59.83423615 59.62913459 -59.85081863 54.91262817 C-59.86578732 50.58964466 -59.85741683 46.26733952 -59.83093087 41.944417 C-59.82537508 40.38603283 -59.82812071 38.8275906 -59.84030981 37.26924419 C-59.93679922 23.90119333 -57.23629208 13.34708454 -47.796875 3.51171875 C-33.58828512 -8.463485 -15.86186804 -8.39745955 0 0 Z " fill="#F12D45" transform="translate(734.1875,455.6875)"/>
<path d="M0 0 C8.71146362 7.16275898 14.83944112 15.5317482 16.27009511 26.97151184 C16.45477136 31.1749527 16.48031687 35.35063002 16.44741821 39.55664062 C16.45318916 41.17537561 16.46113679 42.79410402 16.47105443 44.41281891 C16.4918175 48.83213707 16.48166097 53.25091143 16.46612334 57.67023087 C16.45477033 62.44742664 16.47229208 67.22453151 16.48602295 72.00170898 C16.50821782 81.34880217 16.50347089 90.69569423 16.48895974 100.04279518 C16.47765273 107.64158397 16.47614293 115.24031653 16.48157883 122.83911133 C16.48234499 123.92196238 16.48311116 125.00481343 16.48390054 126.12047815 C16.48549922 128.32049499 16.48712029 130.5205118 16.4887635 132.7205286 C16.50301001 153.33421162 16.48664547 173.94778333 16.45976166 194.5614481 C16.43742391 212.23633362 16.44130434 229.91105494 16.46435547 247.5859375 C16.49113284 268.12750704 16.50163682 288.6689791 16.48629415 309.21056366 C16.48470146 311.40233865 16.48312961 313.59411365 16.48157883 315.78588867 C16.48080745 316.8641915 16.48003607 317.94249433 16.47924132 319.053473 C16.47493014 326.6402461 16.48219833 334.2269572 16.49397659 341.8137207 C16.50802163 351.06362589 16.50415948 360.31331901 16.47757287 369.5632 C16.46446171 374.27970928 16.45923615 378.99586541 16.47581863 383.71237183 C16.49078732 388.03535534 16.48241683 392.35766048 16.45593087 396.680583 C16.45037508 398.23896717 16.45312071 399.7974094 16.46530981 401.35575581 C16.56179922 414.72380667 13.86129208 425.27791546 4.421875 435.11328125 C-5.68071429 443.62788869 -16.44275571 445.24286633 -29.1875 444.3125 C-39.97432134 441.7859751 -47.6296651 436.12221748 -54.1875 427.3125 C-59.41979414 418.17652188 -59.90258907 409.31800284 -59.82241821 399.06835938 C-59.82818916 397.44962439 -59.83613679 395.83089598 -59.84605443 394.21218109 C-59.8668175 389.79286293 -59.85666097 385.37408857 -59.84112334 380.95476913 C-59.82977033 376.17757336 -59.84729208 371.40046849 -59.86102295 366.62329102 C-59.88321782 357.27619783 -59.87847089 347.92930577 -59.86395974 338.58220482 C-59.85265273 330.98341603 -59.85114293 323.38468347 -59.85657883 315.78588867 C-59.85734499 314.70303762 -59.85811116 313.62018657 -59.85890054 312.50452185 C-59.86049922 310.30450501 -59.86212029 308.1044882 -59.8637635 305.9044714 C-59.87801001 285.29078838 -59.86164547 264.67721667 -59.83476166 244.0635519 C-59.81242391 226.38866638 -59.81630434 208.71394506 -59.83935547 191.0390625 C-59.86613284 170.49749296 -59.87663682 149.9560209 -59.86129415 129.41443634 C-59.85970146 127.22266135 -59.85812961 125.03088635 -59.85657883 122.83911133 C-59.85580745 121.7608085 -59.85503607 120.68250567 -59.85424132 119.571527 C-59.84993014 111.9847539 -59.85719833 104.3980428 -59.86897659 96.8112793 C-59.88302163 87.56137411 -59.87915948 78.31168099 -59.85257287 69.0618 C-59.83946171 64.34529072 -59.83423615 59.62913459 -59.85081863 54.91262817 C-59.86578732 50.58964466 -59.85741683 46.26733952 -59.83093087 41.944417 C-59.82537508 40.38603283 -59.82812071 38.8275906 -59.84030981 37.26924419 C-59.93679922 23.90119333 -57.23629208 13.34708454 -47.796875 3.51171875 C-33.58828512 -8.463485 -15.86186804 -8.39745955 0 0 Z " fill="#F12D45" transform="translate(509.1875,455.6875)"/>
</svg>
