<?xml version="1.0" encoding="UTF-8"?>
<svg version="1.1" xmlns="http://www.w3.org/2000/svg" width="86" height="86">
<path d="M0 0 C2.94681552 1.66559138 5.70821145 3.35033672 8.42578125 5.37109375 C9.41578125 6.03109375 10.40578125 6.69109375 11.42578125 7.37109375 C11.42578125 8.03109375 11.42578125 8.69109375 11.42578125 9.37109375 C12.41578125 9.70109375 13.40578125 10.03109375 14.42578125 10.37109375 C22.87920921 19.10630265 24.24730702 28.57842497 24.11328125 40.30859375 C24.14099609 41.60216797 24.16871094 42.89574219 24.19726562 44.22851562 C24.16682359 56.25312035 19.86534905 64.93152595 11.42578125 73.37109375 C2.56761923 81.73713566 -6.68164802 83.19376098 -18.51171875 83.05859375 C-19.80529297 83.08630859 -21.09886719 83.11402344 -22.43164062 83.14257812 C-33.19358908 83.11533269 -41.73282566 79.94209397 -49.57421875 72.37109375 C-49.57421875 71.71109375 -49.57421875 71.05109375 -49.57421875 70.37109375 C-50.23421875 70.37109375 -50.89421875 70.37109375 -51.57421875 70.37109375 C-60.3400191 60.19145464 -63.57877117 48.74122238 -63.00390625 35.59765625 C-62.59131947 30.33193009 -61.08256584 26.00046963 -58.57421875 21.37109375 C-57.92453125 19.82421875 -57.92453125 19.82421875 -57.26171875 18.24609375 C-45.77121536 -1.33031944 -20.72658394 -10.11961844 0 0 Z M-37.57421875 15.37109375 C-38.29609375 15.68046875 -39.01796875 15.98984375 -39.76171875 16.30859375 C-42.32229528 17.80962137 -43.16401092 19.79593163 -44.57421875 22.37109375 C-45.08984375 22.94859375 -45.60546875 23.52609375 -46.13671875 24.12109375 C-50.66424059 31.20764968 -50.31203044 40.86109853 -48.94921875 48.87109375 C-47.42476153 55.03379317 -44.11663529 60.59731477 -38.88671875 64.24609375 C-38.12359375 64.61734375 -37.36046875 64.98859375 -36.57421875 65.37109375 C-36.125625 65.85449219 -35.67703125 66.33789062 -35.21484375 66.8359375 C-31.01456346 70.76619978 -24.13347464 71.56166346 -18.57421875 71.74609375 C-8.23781557 71.32552022 -1.62889211 67.8858545 5.42578125 60.37109375 C11.32190229 53.8853606 12.92892196 46.41059302 12.671875 37.76171875 C11.8332587 29.6151604 9.80940802 22.75084373 3.42578125 17.37109375 C-9.22224364 7.99800388 -24.2515387 5.6818719 -37.57421875 15.37109375 Z " fill="#EE2D45" transform="translate(62.57421875,3.62890625)"/>
<path d="M0 0 C1.875 1.25 1.875 1.25 3 3 C3.4125 3.598125 3.825 4.19625 4.25 4.8125 C5.31634928 7.9226854 4.91456516 9.86434804 4 13 C2.07168003 15.5481371 0.64297089 16.73933612 -2.3125 17.9375 C-6.10335317 18.02565938 -8.67115867 16.72843685 -12 15 C-13.61588379 11.76823243 -13.57451407 8.49384717 -13 5 C-9.33533477 -0.49699784 -6.15355558 -0.79400717 0 0 Z " fill="#E82C42" transform="translate(59,46)"/>
<path d="M0 0 C2.4375 1.0625 2.4375 1.0625 4 3 C4.97966162 7.06936365 5.82382626 11.13777969 4 15 C0.87776266 17.09668493 -2.24530047 18.27204644 -6.015625 17.6875 C-9.05098437 16.56518225 -10.77436197 15.35726021 -12.5 12.625 C-13.33547037 8.23878058 -12.29598605 4.78162408 -10 1 C-6.80425693 -0.59787153 -3.47605968 -0.36481418 0 0 Z " fill="#E82C42" transform="translate(37,46)"/>
<path d="M0 0 C2.125 2.5625 2.125 2.5625 3 6 C2.34553056 9.15897452 1.28072599 12.0444785 0 15 C-4.99221073 15.99844215 -8.3337113 16.17036684 -13 14 C-14.99825961 11.00261059 -15.27550398 10.36652492 -15.25 7 C-15.25515625 6.319375 -15.2603125 5.63875 -15.265625 4.9375 C-15 3 -15 3 -13 0 C-8.12359725 -2.38149902 -4.93239944 -2.23353937 0 0 Z " fill="#EB2D43" transform="translate(61,26)"/>
<path d="M0 0 C0.98324787 4.91623934 1.49970148 8.52136817 -1 13 C-4.95605121 14.86167116 -7.78391907 15.2900288 -11.9375 14.125 C-12.948125 13.75375 -13.95875 13.3825 -15 13 C-16.2987044 8.81528582 -17.1276317 5.98458741 -16.5625 1.625 C-15 -1 -15 -1 -11.875 -2.5625 C-6.91649918 -3.12233074 -4.49657357 -2.05106864 0 0 Z " fill="#EA2C43" transform="translate(41,27)"/>
</svg>
