<svg xmlns="http://www.w3.org/2000/svg" xmlns:xlink="http://www.w3.org/1999/xlink" xmlns:lucid="lucid" width="46" height="46"><g transform="translate(-2464.1421891383707 -4984.34361808746)" lucid:page-tab-id="0_0"><path d="M-1500-500h16500v9000H-1500z" fill="#fff"/><path d="M2464.14 4990.34a6 6 0 0 1 6-6h34a6 6 0 0 1 6 6v34a6 6 0 0 1-6 6h-34a6 6 0 0 1-6-6z" fill="url(#a)"/><path d="M2464.14 4990.34a6 6 0 0 1 6-6h34a6 6 0 0 1 6 6v34a6 6 0 0 1-6 6h-34a6 6 0 0 1-6-6z" fill="url(#b)"/><defs><image width="10" height="10" id="c" xlink:href="https://images.lucid.app/images/ef6a7919-b849-4a57-9996-e7651f37f19d/content" preserveAspectRatio="none"/><pattern id="a" patternUnits="userSpaceOnUse" x="2464.14" y="4984.34" width="46" height="46"><use xlink:href="#c" transform="translate(0, 0) scale(4.6,4.6)"/></pattern><pattern id="b" patternUnits="userSpaceOnUse" x="2464.14" y="4984.34" width="46" height="46"><use xlink:href="#c" transform="translate(0, 0) scale(4.6,4.6)"/></pattern></defs></g></svg>