<?xml version="1.0" encoding="UTF-8"?>
<svg version="1.1" xmlns="http://www.w3.org/2000/svg" width="1200" height="1200">
<path d="M0 0 C0.98257782 -0.00701431 1.96515564 -0.01402863 2.97750854 -0.02125549 C6.1282821 -0.03865011 9.2788677 -0.0451071 12.4296875 -0.046875 C14.04472168 -0.04788712 14.04472168 -0.04788712 15.69238281 -0.04891968 C31.43596643 -0.03322889 46.78293129 0.32687125 62.3046875 3.203125 C63.29146484 3.38004883 64.27824219 3.55697266 65.29492188 3.73925781 C79.53354226 6.34651942 93.51447744 9.80492711 107.3046875 14.203125 C108.15643555 14.47431152 109.00818359 14.74549805 109.88574219 15.02490234 C139.34220944 24.61679595 167.63762505 39.49267987 192.3046875 58.203125 C192.88412109 58.63979492 193.46355469 59.07646484 194.06054688 59.52636719 C201.54910098 65.19790571 208.65504029 71.1616529 215.50390625 77.58984375 C218.08185732 79.99521232 220.71271951 82.32057817 223.3671875 84.640625 C229.0955777 89.79251587 234.22009082 95.43064399 239.3046875 101.203125 C239.97153564 101.95287598 239.97153564 101.95287598 240.65185547 102.71777344 C284.45136975 152.16625686 313.18794295 220.40147852 313.5078125 286.8984375 C313.51482681 287.88101532 313.52184113 288.86359314 313.52906799 289.87594604 C313.54646261 293.0267196 313.5529196 296.1773052 313.5546875 299.328125 C313.55569962 300.94315918 313.55569962 300.94315918 313.55673218 302.59082031 C313.54104139 318.33440393 313.18094125 333.68136879 310.3046875 349.203125 C310.12776367 350.18990234 309.95083984 351.17667969 309.76855469 352.19335938 C307.16129308 366.43197976 303.70288539 380.41291494 299.3046875 394.203125 C299.03350098 395.05487305 298.76231445 395.90662109 298.48291016 396.78417969 C285.5537961 436.48916814 263.36115226 472.79591494 234.98828125 503.296875 C232.56893847 505.91694928 230.2153482 508.58201277 227.8671875 511.265625 C180.61488863 563.69397075 106.95004217 595.29138384 37.3046875 600.203125 C33.73907382 600.34621872 30.17762343 600.3890857 26.609375 600.40625 C25.62679718 600.41326431 24.64421936 600.42027863 23.63186646 600.42750549 C20.4810929 600.44490011 17.3305073 600.4513571 14.1796875 600.453125 C13.10299805 600.45379974 12.02630859 600.45447449 10.91699219 600.45516968 C-4.82659143 600.43947889 -20.17355629 600.07937875 -35.6953125 597.203125 C-36.68208984 597.02620117 -37.66886719 596.84927734 -38.68554688 596.66699219 C-52.92416726 594.05973058 -66.90510244 590.60132289 -80.6953125 586.203125 C-81.54706055 585.93193848 -82.39880859 585.66075195 -83.27636719 585.38134766 C-112.73283444 575.78945405 -141.02825005 560.91357013 -165.6953125 542.203125 C-166.56446289 541.54812012 -166.56446289 541.54812012 -167.45117188 540.87988281 C-174.94122046 535.20721243 -182.04844837 529.24223737 -188.8984375 522.8125 C-191.45390612 520.42834771 -194.06232058 518.12570394 -196.6953125 515.828125 C-206.27809083 507.21439167 -214.79892421 497.36280929 -222.6953125 487.203125 C-223.44071289 486.24986328 -223.44071289 486.24986328 -224.20117188 485.27734375 C-261.67030578 437.01960618 -286.60186223 375.16217521 -286.8984375 313.5078125 C-286.90545181 312.52523468 -286.91246613 311.54265686 -286.91969299 310.53030396 C-286.93708761 307.3795304 -286.9435446 304.2289448 -286.9453125 301.078125 C-286.94598724 300.00143555 -286.94666199 298.92474609 -286.94735718 297.81542969 C-286.93166639 282.07184607 -286.57156625 266.72488121 -283.6953125 251.203125 C-283.51838867 250.21634766 -283.34146484 249.22957031 -283.15917969 248.21289062 C-280.55191808 233.97427024 -277.09351039 219.99333506 -272.6953125 206.203125 C-272.42412598 205.35137695 -272.15293945 204.49962891 -271.87353516 203.62207031 C-258.91606742 163.83000839 -236.66300809 127.52984738 -208.234375 96.96484375 C-206.23802798 94.79343245 -204.32990221 92.59446494 -202.4453125 90.328125 C-193.33220026 79.86653315 -182.4906567 70.82980348 -171.42822266 62.51220703 C-169.72636328 61.2265815 -168.04445393 59.91797618 -166.36328125 58.60546875 C-120.05630182 22.97709539 -58.70532162 0.28238953 0 0 Z M-137.6953125 134.203125 C-139.08675916 135.41650719 -140.48239889 136.62510303 -141.8828125 137.828125 C-149.31502105 144.33873969 -155.5520505 151.46604461 -161.6953125 159.203125 C-162.49066406 160.18152344 -163.28601563 161.15992188 -164.10546875 162.16796875 C-171.14709188 171.01742539 -177.04784237 180.41375563 -182.6953125 190.203125 C-183.10168945 190.90453613 -183.50806641 191.60594727 -183.92675781 192.32861328 C-212.80895904 242.78302839 -218.59133315 304.769031 -203.47265625 360.48339844 C-191.23719078 403.29215641 -166.54946579 443.99970936 -131.484375 471.96484375 C-129.70332992 473.39416985 -127.94511431 474.85274457 -126.21875 476.34765625 C-84.36548118 512.30518597 -25.09870074 528.40532665 29.3125 524.640625 C78.27609919 520.6325854 125.98571598 501.9101308 162.16015625 468.1953125 C164.09686182 466.39618711 166.08617486 464.70603304 168.1171875 463.015625 C185.01923374 448.18390973 198.20561914 429.61252949 209.3046875 410.203125 C209.70671387 409.50751465 210.10874023 408.8119043 210.52294922 408.09521484 C239.39528396 357.67280758 245.19187155 295.60465496 230.08203125 239.92285156 C220.69921143 207.09476965 204.65725953 176.41226812 181.296875 151.34765625 C179.49774961 149.41095068 177.80759554 147.42163764 176.1171875 145.390625 C161.27606631 128.47785989 142.70618327 115.3370397 123.3046875 104.203125 C122.66853516 103.83348633 122.03238281 103.46384766 121.37695312 103.08300781 C39.50017954 55.8798732 -69.14417427 70.34557822 -137.6953125 134.203125 Z " fill="#F12D45" transform="translate(586.6953125,-0.203125)"/>
<path d="M0 0 C1.12470703 0.495 2.24941406 0.99 3.40820312 1.5 C49.89778028 22.07867162 92.21987677 49.91886409 130.875 82.8125 C131.39118896 83.24933105 131.90737793 83.68616211 132.43920898 84.13623047 C142.96382509 93.14824118 152.92991274 102.76220083 162.70458984 112.57421875 C164.39175958 114.26681347 166.08430196 115.95390597 167.77734375 117.640625 C173.39876816 123.25825139 178.86933334 128.92429984 184 135 C184.98425117 136.13014966 185.96989901 137.25908469 186.95703125 138.38671875 C193.094041 145.46047456 199.00385308 152.65058189 204.61474609 160.15087891 C205.59024478 161.45303383 206.57014906 162.75189415 207.55322266 164.04833984 C267.39352523 243.00503078 302.29300276 336.7694084 313.35009766 466.9140625 C313.36673331 468.72506492 313.39412217 470.5359997 313.43212891 472.34667969 C313.70338158 485.4281347 313.26897392 497.12656043 303.9375 507.375 C297.52326278 514.0582908 288.99923356 518.5648594 279.71484375 519.23828125 C267.89670461 519.47048874 257.94616013 517.48954004 249.0390625 509.16796875 C237.85766305 497.6332537 237.08141109 484.87334172 236.70996094 469.60375977 C234.16679369 367.34358926 196.37493762 269.74103479 116.62890625 175.8515625 C114.15025851 173.16298472 111.72919315 170.43166958 109.3125 167.6875 C106.08288674 164.08501843 102.71648176 160.88313651 99.01953125 157.76953125 C96.79369402 155.81923286 94.75040244 153.74652844 92.6875 151.625 C88.66209938 147.55143219 84.39634 143.94116116 79.92578125 140.3671875 C77.40842988 138.33045194 74.95437305 136.238413 72.51196289 134.11303711 C8.50842911 78.70417851 -76.11346179 45.78400692 -159.4375 35.6875 C-160.10597961 35.60609772 -160.77445923 35.52469543 -161.4631958 35.44082642 C-178.11930836 33.4442881 -194.62025192 32.79208835 -211.375 32.8125 C-212.75828995 32.81340637 -212.75828995 32.81340637 -214.16952515 32.81433105 C-229.20070966 32.84095762 -244.0523658 33.28786355 -259 35 C-260.1039209 35.12358887 -261.2078418 35.24717773 -262.34521484 35.37451172 C-350.43904926 45.57485044 -432.90094178 81.096575 -501 138 C-501.54269531 138.45101074 -502.08539063 138.90202148 -502.64453125 139.36669922 C-511.21367778 146.50684868 -519.22020971 154.01151191 -527 162 C-529.79727288 164.81558563 -532.61729437 167.60619785 -535.453125 170.3828125 C-541.96395292 176.78269434 -548.25570256 183.17208614 -553.9140625 190.35546875 C-556.10467056 193.13270032 -558.38929807 195.81132687 -560.6875 198.5 C-621.29505736 271.17251434 -656.77747238 366.2662929 -660.38671875 460.6171875 C-660.4585396 462.36166528 -660.53064535 464.10613135 -660.60302734 465.85058594 C-660.74573306 469.29889675 -660.85747336 472.74635152 -660.95166016 476.19628906 C-661.41558607 489.45617399 -663.90858607 499.92100578 -673.390625 509.80078125 C-683.49321429 518.31538869 -694.25525571 519.93036633 -707 519 C-717.80152312 516.4700316 -725.41825517 510.80181275 -732 502 C-737.98211751 492.01247337 -737.71189819 482.04388065 -737.5 470.8125 C-737.48104139 468.9844597 -737.46241003 467.15641597 -737.4440918 465.32836914 C-736.77274884 416.46862478 -728.08921064 367.44615718 -713 321 C-712.62117676 319.82920898 -712.24235352 318.65841797 -711.85205078 317.45214844 C-691.90539733 256.41097627 -660.77478027 196.56635249 -618.49609375 147.89453125 C-616.17838314 145.20685744 -613.95919807 142.46442495 -611.75 139.6875 C-602.0833257 127.87829928 -591.21335777 117.11032995 -580.46798706 106.29275513 C-579.33911734 105.1558242 -578.21173027 104.01741885 -577.08596802 102.87741089 C-570.79279126 96.51303185 -564.44299807 90.4934029 -557.40966797 84.94213867 C-554.96453521 82.97141617 -552.66740312 80.89537761 -550.375 78.75 C-543.31834955 72.33079658 -535.63283481 66.70719954 -528 61 C-527.35869141 60.51740723 -526.71738281 60.03481445 -526.05664062 59.53759766 C-449.61349552 2.08441194 -358.81991373 -31.94334248 0 0 Z " fill="#F12D45" transform="translate(812,681)"/>
</svg>
