<?xml version="1.0" encoding="UTF-8" standalone="no"?>
<svg
   fill="currentColor"
   viewBox="0 0 72 72"
   class="icon--decorative"
   role="presentation"
   version="1.1"
   id="svg2"
   sodipodi:docname="980c790c-4f7b-49aa-a237-8e35663b9514.svg"
   xmlns:inkscape="http://www.inkscape.org/namespaces/inkscape"
   xmlns:sodipodi="http://sodipodi.sourceforge.net/DTD/sodipodi-0.dtd"
   xmlns="http://www.w3.org/2000/svg"
   xmlns:svg="http://www.w3.org/2000/svg">
  <defs
     id="defs2" />
  <sodipodi:namedview
     id="namedview2"
     pagecolor="#ffffff"
     bordercolor="#000000"
     borderopacity="0.25"
     inkscape:showpageshadow="2"
     inkscape:pageopacity="0.0"
     inkscape:pagecheckerboard="0"
     inkscape:deskcolor="#d1d1d1" />
  <title
     id="title1">User with a plus sign</title>
  <g
     class="users_user--plus-sign"
     id="g2">
    <path
       class="path-fill logo-fill"
       fill-rule="evenodd"
       d="M8.068 15.254C8.068 7.148 14.639.576 22.746.576c8.106 0 14.678 6.572 14.678 14.678 0 8.107-6.572 14.678-14.678 14.678-8.107 0-14.678-6.571-14.678-14.678ZM22.746 4.576c-5.897 0-10.678 4.781-10.678 10.678 0 5.897 4.78 10.678 10.678 10.678 5.897 0 10.678-4.78 10.678-10.678 0-5.897-4.781-10.678-10.678-10.678Zm-8.84 27.75a22.721 22.721 0 0 1 24.715 4.704 2 2 0 1 1-2.799 2.859 18.72 18.72 0 0 0-20.363-3.877A18.722 18.722 0 0 0 4 53.287a2 2 0 0 1-4 .004 22.723 22.723 0 0 1 13.906-20.966Zm29.102 10.106a16.983 16.983 0 1 1 24.018 24.017 16.983 16.983 0 0 1-24.018-24.017Zm12.009-.974a12.983 12.983 0 1 0 0 25.966 12.983 12.983 0 0 0 0-25.966Z"
       clip-rule="evenodd"
       id="path1" />
    <path
       class="path-fill logo-fill"
       d="M57 48.576a2 2 0 1 0-4 0v4h-4a2 2 0 1 0 0 4h4v4a2 2 0 1 0 4 0v-4h4a2 2 0 1 0 0-4h-4v-4Z"
       id="path2" />
  </g>
</svg>
