<?xml version="1.0" encoding="UTF-8" standalone="no"?>
<svg
   fill="currentColor"
   viewBox="0 0 72 72"
   class="icon--decorative"
   role="presentation"
   version="1.1"
   id="svg2"
   sodipodi:docname="a983166d-a225-455f-80ca-3abe81c09950.svg"
   xmlns:inkscape="http://www.inkscape.org/namespaces/inkscape"
   xmlns:sodipodi="http://sodipodi.sourceforge.net/DTD/sodipodi-0.dtd"
   xmlns="http://www.w3.org/2000/svg"
   xmlns:svg="http://www.w3.org/2000/svg">
  <defs
     id="defs2" />
  <sodipodi:namedview
     id="namedview2"
     pagecolor="#ffffff"
     bordercolor="#000000"
     borderopacity="0.25"
     inkscape:showpageshadow="2"
     inkscape:pageopacity="0.0"
     inkscape:pagecheckerboard="0"
     inkscape:deskcolor="#d1d1d1" />
  <title
     id="title1">User Profile</title>
  <g
     class="users_user-profile"
     id="g2">
    <path
       class="path-fill fill-path"
       d="M57.355 71h-42.71c-2.17 0-3.94-1.77-3.94-3.94V4.94c0-2.17 1.77-3.94 3.94-3.94h42.71c2.17 0 3.94 1.77 3.94 3.94v62.12c0 2.17-1.77 3.94-3.94 3.94ZM14.645 5l.06 62.06 42.65-.06-.06-62h-42.65Z"
       id="path1" />
    <path
       class="path-fill fill-path"
       d="M47.945 40.63c-.83 0-1.6-.52-1.89-1.35-.74-2.15-2.11-3.98-3.95-5.29-1.84-1.31-4-2.01-6.26-2.01s-4.42.69-6.26 2.01a10.847 10.847 0 0 0-3.95 5.29 1.998 1.998 0 0 1-2.54 1.23 1.99 1.99 0 0 1-1.23-2.54 14.85 14.85 0 0 1 5.41-7.24c1.26-.9 2.63-1.59 4.08-2.05-.82-.44-1.56-1-2.23-1.67a9.499 9.499 0 0 1-2.06-3.1 9.515 9.515 0 0 1-.72-3.66c0-1.27.24-2.49.72-3.66a9.395 9.395 0 0 1 2.06-3.1c.89-.89 1.93-1.59 3.09-2.08 2.32-.97 4.97-.97 7.29 0 1.16.48 2.2 1.18 3.09 2.08.89.89 1.58 1.94 2.06 3.1.48 1.17.72 2.4.72 3.66 0 1.26-.24 2.49-.72 3.65a9.395 9.395 0 0 1-2.06 3.1c-.66.67-1.41 1.22-2.23 1.67 1.44.46 2.82 1.15 4.08 2.05 2.52 1.8 4.39 4.3 5.41 7.24a1.998 1.998 0 0 1-1.88 2.65l-.03.02Zm-12.11-25.92c-.73 0-1.44.14-2.11.42a5.525 5.525 0 0 0-2.99 3.01c-.28.68-.42 1.4-.42 2.13s.14 1.45.42 2.13a5.504 5.504 0 0 0 2.99 3.01 5.51 5.51 0 0 0 6.01-1.2c.52-.52.92-1.13 1.2-1.81.28-.68.42-1.4.42-2.13s-.14-1.45-.42-2.13a5.525 5.525 0 0 0-2.99-3c-.67-.28-1.38-.42-2.11-.42v-.01Zm-14.39 34.94c-1.1 0-2-.9-2-2s.9-2 2-2h28.15c1.1 0 2 .9 2 2s-.9 2-2 2h-28.15Zm0 9.7c-1.1 0-2-.9-2-2s.9-2 2-2h28.15c1.1 0 2 .9 2 2s-.9 2-2 2h-28.15Z"
       id="path2" />
  </g>
</svg>
