<?xml version="1.0" encoding="UTF-8" standalone="no"?>
<svg
   fill="currentColor"
   viewBox="0 0 72 72"
   class="icon--decorative"
   role="presentation"
   version="1.1"
   id="svg1"
   sodipodi:docname="b9adaff6-2695-41d3-bcef-a1b5465d82a4.svg"
   xmlns:inkscape="http://www.inkscape.org/namespaces/inkscape"
   xmlns:sodipodi="http://sodipodi.sourceforge.net/DTD/sodipodi-0.dtd"
   xmlns="http://www.w3.org/2000/svg"
   xmlns:svg="http://www.w3.org/2000/svg">
  <defs
     id="defs1" />
  <sodipodi:namedview
     id="namedview1"
     pagecolor="#ffffff"
     bordercolor="#000000"
     borderopacity="0.25"
     inkscape:showpageshadow="2"
     inkscape:pageopacity="0.0"
     inkscape:pagecheckerboard="0"
     inkscape:deskcolor="#d1d1d1" />
  <title
     id="title1">User with a warning symbol</title>
  <g
     class="users_user--warning"
     id="g1">
    <path
       d="M65.1 69.9H41.79c-1.15 0-2.3-.28-3.31-.8a6.81 6.81 0 0 1-2.53-2.26c-.64-.96-1-2.07-1.06-3.2-.06-1.14.2-2.28.75-3.29L47.3 38.59c.58-1.09 1.47-2 2.57-2.63 2.15-1.24 4.99-1.24 7.14 0 1.1.63 1.98 1.54 2.57 2.63l11.66 21.76c.55 1.01.8 2.15.75 3.29a6.289 6.289 0 0 1-1.06 3.2 6.82 6.82 0 0 1-2.53 2.26c-1.01.53-2.16.8-3.31.8h.01ZM53.44 39c-.56 0-1.1.14-1.57.41-.45.26-.81.62-1.04 1.05L39.17 62.22c-.2.38-.3.79-.28 1.21.02.42.16.83.4 1.19.25.38.61.7 1.04.92.44.23.95.35 1.46.35H65.1c.51 0 1.02-.12 1.46-.35.43-.22.78-.54 1.03-.92.24-.36.38-.77.4-1.19.02-.42-.08-.83-.28-1.21L56.05 40.46a2.69 2.69 0 0 0-1.04-1.05c-.47-.27-1.01-.42-1.57-.42V39Zm0 23.18c-.16 0-.33-.02-.48-.06a1.98 1.98 0 0 1-1.31-1.05c-.28-.56-.28-1.23 0-1.79.19-.39.51-.71.9-.9.56-.28 1.23-.28 1.79 0a2.012 2.012 0 0 1 .89 2.69 2.008 2.008 0 0 1-1.8 1.11h.01Zm0-6.08c-1.1 0-2-.9-2-2v-6.07c0-1.1.9-2 2-2s2 .9 2 2v6.07c0 1.1-.9 2-2 2Zm-47.45-.55c-1.09 0-1.99-.89-1.99-2 0-4.32 1.25-8.5 3.64-12.09 2.39-3.6 5.75-6.38 9.73-8.06 3.98-1.68 8.32-2.13 12.56-1.33 4.24.81 8.11 2.83 11.19 5.85.79.77.8 2.04.03 2.83s-2.04.8-2.83.03A17.77 17.77 0 0 0 29.18 36a17.85 17.85 0 0 0-18.21 7.66A17.717 17.717 0 0 0 8 53.54a2 2 0 0 1-2 2l-.01.01Zm19.87-24.27c-7.8 0-14.14-6.34-14.14-14.14C11.72 9.34 18.07 3 25.86 3 33.65 3 40 9.34 40 17.14c0 7.8-6.34 14.14-14.14 14.14Zm0-24.28c-5.59 0-10.14 4.55-10.14 10.14 0 5.59 4.55 10.14 10.14 10.14 5.59 0 10.14-4.55 10.14-10.14C36 11.55 31.45 7 25.86 7Z"
       class="path-fill fill-path"
       id="path1" />
  </g>
</svg>
