<?xml version="1.0" encoding="UTF-8" standalone="no"?>
<svg
   width="73"
   height="72"
   viewBox="0 0 73 72"
   fill="none"
   role="presentation"
   class="icon--decorative"
   version="1.1"
   id="svg1"
   sodipodi:docname="9b8fec18-b4a1-4eed-85a8-058eb09a37e9.svg"
   xmlns:inkscape="http://www.inkscape.org/namespaces/inkscape"
   xmlns:sodipodi="http://sodipodi.sourceforge.net/DTD/sodipodi-0.dtd"
   xmlns="http://www.w3.org/2000/svg"
   xmlns:svg="http://www.w3.org/2000/svg">
  <defs
     id="defs1" />
  <sodipodi:namedview
     id="namedview1"
     pagecolor="#ffffff"
     bordercolor="#000000"
     borderopacity="0.25"
     inkscape:showpageshadow="2"
     inkscape:pageopacity="0.0"
     inkscape:pagecheckerboard="0"
     inkscape:deskcolor="#d1d1d1" />
  <title
     id="title1">User Checkmark</title>
  <path
     fill-rule="evenodd"
     clip-rule="evenodd"
     d="M8.08537 15.2541C8.08537 7.14773 14.6569 0.576172 22.7633 0.576172C30.8697 0.576172 37.4413 7.14773 37.4413 15.2541C37.4413 23.3605 30.8697 29.9321 22.7633 29.9321C14.6569 29.9321 8.08537 23.3605 8.08537 15.2541ZM22.7633 4.57617C16.8661 4.57617 12.0854 9.35687 12.0854 15.2541C12.0854 21.1514 16.8661 25.9321 22.7633 25.9321C28.6606 25.9321 33.4413 21.1514 33.4413 15.2541C33.4413 9.35687 28.6606 4.57617 22.7633 4.57617ZM13.924 32.3252C18.049 30.5883 22.595 30.1084 26.9917 30.9455C31.3884 31.7824 35.4402 33.8991 38.6384 37.0302C39.4277 37.803 39.4411 39.0692 38.6684 39.8585C37.8957 40.6478 36.6294 40.6612 35.8401 39.8885C33.205 37.3086 29.8664 35.5645 26.2437 34.875L26.2436 34.875C22.6208 34.1852 18.875 34.5806 15.4761 36.0118L15.476 36.0118C12.0772 37.4427 9.17657 39.8455 7.13811 42.9189L7.13806 42.919C5.09958 45.992 4.01403 49.5989 4.01759 53.2868C4.01865 54.3914 3.12408 55.2877 2.01952 55.2887C0.914946 55.2898 0.0186532 54.3952 0.0175887 53.2907C0.0132751 48.8149 1.33071 44.4375 3.80468 40.7079C6.27862 36.978 9.7989 34.0619 13.9239 32.3253M43.0257 42.4317C46.2106 39.2468 50.5303 37.4575 55.0345 37.4575C59.5387 37.4575 63.8584 39.2468 67.0434 42.4317C70.2283 45.6167 72.0176 49.9364 72.0176 54.4406C72.0176 58.9448 70.2283 63.2645 67.0434 66.4494C63.8584 69.6344 59.5387 71.4236 55.0345 71.4236C50.5303 71.4236 46.2106 69.6344 43.0257 66.4494C39.8408 63.2645 38.0515 58.9448 38.0515 54.4406C38.0515 49.9364 39.8408 45.6167 43.0257 42.4317ZM55.0345 41.4575C51.5912 41.4575 48.2889 42.8254 45.8541 45.2602C43.4193 47.695 42.0515 50.9973 42.0515 54.4406C42.0515 57.8839 43.4193 61.1862 45.8541 63.621C48.2889 66.0558 51.5912 67.4236 55.0345 67.4236C58.4778 67.4236 61.7801 66.0558 64.2149 63.621C66.6497 61.1862 68.0176 57.8839 68.0176 54.4406C68.0176 50.9973 66.6497 47.695 64.2149 45.2602C61.7801 42.8254 58.4778 41.4575 55.0345 41.4575ZM63.4921 48.1605C64.3738 48.8258 64.5493 50.0799 63.884 50.9616L56.5949 60.6221C56.5944 60.6228 56.5938 60.6236 56.5932 60.6244C56.2604 61.0668 55.8366 61.4328 55.3503 61.6976C54.8632 61.9629 54.3248 62.1204 53.7716 62.1596C53.2183 62.1988 52.6631 62.1187 52.1435 61.9247C51.6266 61.7317 51.1569 61.4305 50.7659 61.0412C50.7639 61.0392 50.7618 61.0372 50.7598 61.0352L47.0735 57.3988C46.2872 56.6231 46.2786 55.3568 47.0543 54.5704C47.83 53.7841 49.0963 53.7755 49.8826 54.5512L53.4841 58.1039L60.6909 48.5524C61.3562 47.6707 62.6103 47.4952 63.4921 48.1605Z"
     class="path-fill fill-path"
     fill="#121C2D"
     id="path1" />
</svg>
