<?xml version="1.0" encoding="UTF-8" standalone="no"?>
<svg
   fill="currentColor"
   viewBox="0 0 72 72"
   class="icon--decorative"
   role="presentation"
   version="1.1"
   id="svg3"
   sodipodi:docname="8bac1a55-e3f1-41cd-bce3-4c9a178c5342.svg"
   xmlns:inkscape="http://www.inkscape.org/namespaces/inkscape"
   xmlns:sodipodi="http://sodipodi.sourceforge.net/DTD/sodipodi-0.dtd"
   xmlns="http://www.w3.org/2000/svg"
   xmlns:svg="http://www.w3.org/2000/svg">
  <defs
     id="defs3" />
  <sodipodi:namedview
     id="namedview3"
     pagecolor="#ffffff"
     bordercolor="#000000"
     borderopacity="0.25"
     inkscape:showpageshadow="2"
     inkscape:pageopacity="0.0"
     inkscape:pagecheckerboard="0"
     inkscape:deskcolor="#d1d1d1" />
  <title
     id="title1">User settings</title>
  <g
     class="user--settings"
     id="g3">
    <path
       class="path-fill fill-path"
       fill-rule="evenodd"
       d="M29.6 5.15a13.4 13.4 0 0 0 0 26.5V5.15Zm-10.304.946A17.4 17.4 0 0 1 31.6 1a2 2 0 0 1 2 2v30.8a2 2 0 0 1-2 2A17.4 17.4 0 0 1 19.296 6.096Zm13.718 32.889A2 2 0 0 1 33.6 40.4V69a2 2 0 0 1-2 2H3a2 2 0 0 1-2-2.002A30.63 30.63 0 0 1 31.598 38.4a2 2 0 0 1 1.416.585ZM29.6 42.477A26.63 26.63 0 0 0 5.077 67H29.6V42.477Z"
       clip-rule="evenodd"
       id="path1" />
    <path
       class="path-fill fill-path"
       d="M42.4 3a2 2 0 1 0-4 0v6.6a2 2 0 0 0 2 2h.009a6.8 6.8 0 0 1 4.706 1.9 2.015 2.015 0 0 0 .185.185 6.8 6.8 0 0 1 0 9.43 2.104 2.104 0 0 0-.185.185 6.8 6.8 0 0 1-4.706 1.9h-.01a2 2 0 0 0-2 2v6.6a2 2 0 0 0 4 0v-4.787a10.802 10.802 0 0 0 4.091-1.694l3.496 3.495a2 2 0 0 0 2.828-2.828L49.32 24.49a10.803 10.803 0 0 0 1.694-4.091H55.8a2 2 0 1 0 0-4h-4.787a10.803 10.803 0 0 0-1.694-4.09l3.495-3.496a2 2 0 0 0-2.828-2.828L46.49 9.48a10.803 10.803 0 0 0-4.09-1.693V3Z"
       id="path2" />
    <path
       class="path-fill fill-path"
       fill-rule="evenodd"
       d="M38.4 40.4a2 2 0 0 1 2-2h4.4a2 2 0 0 1 2 2v5.464a23.76 23.76 0 0 1 5.444 2.267l3.839-3.861a2 2 0 0 1 2.833-.004l6.218 6.218a2 2 0 0 1 0 2.829l-3.842 3.842A23.77 23.77 0 0 1 63.54 62.6H69a2 2 0 0 1 2 2V69a2 2 0 0 1-4 0v-2.4h-5.04a2 2 0 0 1-1.961-1.607 19.766 19.766 0 0 0-2.904-7.032 2 2 0 0 1 .253-2.52l3.544-3.542-3.387-3.386-3.543 3.564a2 2 0 0 1-2.529.253 19.764 19.764 0 0 0-7.032-2.93 2 2 0 0 1-1.601-1.96V42.4h-2.4a2 2 0 0 1-2-2Zm0 17.6a2 2 0 0 1 2-2 13 13 0 0 1 13 13 2 2 0 0 1-4 0 9 9 0 0 0-9-9 2 2 0 0 1-2-2Z"
       clip-rule="evenodd"
       id="path3" />
  </g>
</svg>
